999
FreeCAD v0.18.4 
  0
SECTION
  2
HEADER
  9
$ACADVER
  1
AC1014
  9
$ACADMAINTVER
 70
     9
  9
$DWGCODEPAGE
  3
ANSI_1252
  9
$TEXTSTYLE
  7
STANDARD
  9
$DIMSTYLE
  2
STANDARD
  9
$DIMTXSTY
  7
STANDARD
  9
$CMLSTYLE
  2
STANDARD
  9
$HANDSEED
  5
FFF
  0
ENDSEC
  0
SECTION
  2
CLASSES
  0
CLASS
  1
ACDBDICTIONARYWDFLT
  2
AcDbDictionaryWithDefault
  3
ObjectDBX Classes
 90
        0
280
     0
281
     0
  0
CLASS
  1
XRECORD
  2
AcDbXrecord
  3
ObjectDBX Classes
 90
        0
280
     0
281
     0
  0
CLASS
  1
LWPOLYLINE
  2
AcDbPolyline
  3
ObjectDBX Classes
 90
        0
280
     0
281
     1
  0
ENDSEC
  0
SECTION
  2
TABLES
  0
TABLE
  2
VPORT
  5
20
330
0
100
AcDbSymbolTable
 70
     1
  0
VPORT
  5
21
330
20
100
AcDbSymbolTableRecord
100
AcDbViewportTableRecord
  2
*ACTIVE
 70
     0
  0
ENDTAB
  0
TABLE
  2
LTYPE
  5
22
330
0
100
AcDbSymbolTable
 70
     1
  0
LTYPE
  5
23
330
21
100
AcDbSymbolTableRecord
100
AcDbLinetypeTableRecord
  2
BYBLOCK
 70
     0
  3

 72
    65
 73
     0
 40
0.0
  0
LTYPE
  5
24
330
21
100
AcDbSymbolTableRecord
100
AcDbLinetypeTableRecord
  2
BYLAYER
 70
     0
  3

 72
    65
 73
     0
 40
0.0
  0
LTYPE
  5
25
330
21
100
AcDbSymbolTableRecord
100
AcDbLinetypeTableRecord
  2
CONTINUOUS
 70
     0
  3
Solid line
 72
    65
 73
     0
 40
0.0
  0
ENDTAB
  0
TABLE
  2
LAYER
  5
31
330
0
100
AcDbSymbolTable
 70
12
  0
LAYER
  5
32
330
31
100
AcDbSymbolTableRecord
100
AcDbLayerTableRecord
  2
0
 70
   0
 62
   7
  6
CONTINUOUS
  0
LAYER
  5
33
330
31
100
AcDbSymbolTableRecord
100
AcDbLayerTableRecord
  2
ProjItem015
 70
    0
 62
    7
  6
CONTINUOUS
  0
LAYER
  5
34
330
31
100
AcDbSymbolTableRecord
100
AcDbLayerTableRecord
  2
ProjItem016
 70
    0
 62
    7
  6
CONTINUOUS
  0
LAYER
  5
35
330
31
100
AcDbSymbolTableRecord
100
AcDbLayerTableRecord
  2
ProjItem017
 70
    0
 62
    7
  6
CONTINUOUS
  0
LAYER
  5
36
330
31
100
AcDbSymbolTableRecord
100
AcDbLayerTableRecord
  2
Dimension032
 70
    0
 62
    7
  6
CONTINUOUS
  0
LAYER
  5
37
330
31
100
AcDbSymbolTableRecord
100
AcDbLayerTableRecord
  2
Dimension033
 70
    0
 62
    7
  6
CONTINUOUS
  0
LAYER
  5
38
330
31
100
AcDbSymbolTableRecord
100
AcDbLayerTableRecord
  2
Dimension034
 70
    0
 62
    7
  6
CONTINUOUS
  0
LAYER
  5
39
330
31
100
AcDbSymbolTableRecord
100
AcDbLayerTableRecord
  2
Dimension035
 70
    0
 62
    7
  6
CONTINUOUS
  0
LAYER
  5
3A
330
31
100
AcDbSymbolTableRecord
100
AcDbLayerTableRecord
  2
View
 70
    0
 62
    7
  6
CONTINUOUS
  0
LAYER
  5
3B
330
31
100
AcDbSymbolTableRecord
100
AcDbLayerTableRecord
  2
Dimension036
 70
    0
 62
    7
  6
CONTINUOUS
  0
LAYER
  5
3C
330
31
100
AcDbSymbolTableRecord
100
AcDbLayerTableRecord
  2
Dimension037
 70
    0
 62
    7
  6
CONTINUOUS
  0
LAYER
  5
3D
330
31
100
AcDbSymbolTableRecord
100
AcDbLayerTableRecord
  2
View019
 70
    0
 62
    7
  6
CONTINUOUS
  0
ENDTAB
  0
TABLE
  2
STYLE
  5
60
330
0
100
AcDbSymbolTable
 70
     2
  0
STYLE
  5
61
330
60
100
AcDbSymbolTableRecord
100
AcDbTextStyleTableRecord
  2
STANDARD
 70
     0
 40
0.0
 41
1.0
 50
0.0
 71
     0
 42
2.5
  3
arial.ttf
  4

  0
STYLE
  5
62
330
60
100
AcDbSymbolTableRecord
100
AcDbTextStyleTableRecord
  2
ANNOTATIVE
 70
     0
 40
0.0
 41
1.0
 50
0.0
 71
     0
 42
2.5
  3
arial.ttf
  4

  0
ENDTAB
  0
TABLE
  2
VIEW
  5
63
330
0
100
AcDbSymbolTable
 70
     0
  0
ENDTAB
  0
TABLE
  2
UCS
  5
64
330
0
100
AcDbSymbolTable
 70
     0
  0
ENDTAB
  0
TABLE
  2
APPID
  5
65
330
0
100
AcDbSymbolTable
 70
     2
  0
APPID
  5
66
330
65
100
AcDbSymbolTableRecord
100
AcDbRegAppTableRecord
  2
ACAD
 70
     0
  0
APPID
  5
67
330
65
100
AcDbSymbolTableRecord
100
AcDbRegAppTableRecord
  2
ACADANNOTATIVE
 70
     0
  0
ENDTAB
  0
TABLE
  2
DIMSTYLE
  5
68
330
0
100
AcDbSymbolTable
 70
     2
  0
DIMSTYLE
105
69
330
68
100
AcDbSymbolTableRecord
100
AcDbDimStyleTableRecord
  2
STANDARD
 70
     0
  3

  4

  5

  6

  7

 40
0.0
 41
2.5
 42
0.625
 43
3.75
 44
1.25
 45
0.0
 46
0.0
 47
0.0
 48
0.0
140
2.5
141
2.5
142
0.0
143
0.03937007874016
144
1.0
145
0.0
146
1.0
147
0.625
 71
     0
 72
     0
 73
     0
 74
     0
 75
     0
 76
     0
 77
     1
 78
     8
170
     0
171
     3
172
     1
173
     0
174
     0
175
     0
176
     0
177
     0
178
     0
270
     2
271
     2
272
     2
273
     2
274
     3
340
61
275
     0
280
     0
281
     0
282
     0
283
     0
284
     8
285
     0
286
     0
287
     3
288
     0
  0
ENDTAB
  0
TABLE
  2
BLOCK_RECORD
  5
111
330
0
100
AcDbSymbolTable
  70
5
  0
BLOCK_RECORD
  5
112
330
111
100
AcDbSymbolTableRecord
100
AcDbBlockTableRecord
  2
*MODEL_SPACE
  0
BLOCK_RECORD
  5
113
330
111
100
AcDbSymbolTableRecord
100
AcDbBlockTableRecord
  2
*PAPER_SPACE
  0
BLOCK_RECORD
  5
114
330
111
100
AcDbSymbolTableRecord
100
AcDbBlockTableRecord
  2
*Dimension032
  0
BLOCK_RECORD
  5
115
330
111
100
AcDbSymbolTableRecord
100
AcDbBlockTableRecord
  2
*Dimension033
  0
BLOCK_RECORD
  5
116
330
111
100
AcDbSymbolTableRecord
100
AcDbBlockTableRecord
  2
*Dimension034
  0
BLOCK_RECORD
  5
117
330
111
100
AcDbSymbolTableRecord
100
AcDbBlockTableRecord
  2
*Dimension035
  0
BLOCK_RECORD
  5
118
330
111
100
AcDbSymbolTableRecord
100
AcDbBlockTableRecord
  2
*Dimension036
  0
BLOCK_RECORD
  5
119
330
111
100
AcDbSymbolTableRecord
100
AcDbBlockTableRecord
  2
*Dimension037
  0
ENDTAB
  0
ENDSEC
  0
SECTION
  2
BLOCKS
  0
BLOCK
  5
211
330
112
100
AcDbEntity
  8
0
100
AcDbBlockBegin
  2
*MODEL_SPACE
 70
   0
 10
0
 20
0
 30
0
  3
*MODEL_SPACE
  1
 
  0
ENDBLK
  5
212
330
112
100
AcDbEntity
  8
0
100
AcDbBlockEnd
  0
BLOCK
  5
213
330
113
100
AcDbEntity
 67
1
  8
0
100
AcDbBlockBegin
  2
*PAPER_SPACE
 70
   0
 10
0
 20
0
 30
0
  3
*PAPER_SPACE
  1
 
  0
ENDBLK
  5
214
330
113
100
AcDbEntity
 67
    1
  8
0
100
AcDbBlockEnd
  0
BLOCK
  5
215
330
114
100
AcDbEntity
  8
Dimension032
100
AcDbBlockBegin
  2
*Dimension032
 70
   1
 10
0
 20
0
 30
0
  3
*Dimension032
  1
 
  0
LINE
  5
216
330
114
100
AcDbEntity
  8
Dimension032
100
AcDbLine
 10
438.478
 20
473.435
 30
0
 11
438.478
 21
508.482
 31
0
  0
LINE
  5
217
330
114
100
AcDbEntity
  8
Dimension032
100
AcDbLine
 10
108.478
 20
473.435
 30
0
 11
108.478
 21
508.482
 31
0
  0
LINE
  5
218
330
114
100
AcDbEntity
  8
Dimension032
100
AcDbLine
 10
108.478
 20
508.482
 30
0
 11
438.478
 21
508.482
 31
0
  0
TEXT
  5
219
330
114
100
AcDbEntity
  8
Dimension032
100
AcDbText
 10
270.697
 20
513.482
 30
0
 40
3.5
  1
330.000 mm
  7
STANDARD
 72
1
 11
270.697
 21
508.482
 31
0
100
AcDbText
  0
SOLID
  5
21A
330
114
100
AcDbEntity
  8
0
 62
     0
100
AcDbTrace
 10
113.478
 20
508.066
 30
0
 11
113.478
 21
508.899
 31
0
 12
108.478
 22
508.482
 32
0
 13
108.478
 23
508.482
 33
0
  0
SOLID
  5
21B
330
114
100
AcDbEntity
  8
0
 62
     0
100
AcDbTrace
 10
433.478
 20
508.066
 30
0
 11
433.478
 21
508.899
 31
0
 12
438.478
 22
508.482
 32
0
 13
438.478
 23
508.482
 33
0
  0
ENDBLK
  5
21C
330
114
100
AcDbEntity
  8
Dimension032
100
AcDbBlockEnd
  0
BLOCK
  5
21D
330
115
100
AcDbEntity
  8
Dimension033
100
AcDbBlockBegin
  2
*Dimension033
 70
   1
 10
0
 20
0
 30
0
  3
*Dimension033
  1
 
  0
LINE
  5
21E
330
115
100
AcDbEntity
  8
Dimension033
100
AcDbLine
 10
438.478
 20
123.435
 30
0
 11
479.076
 21
123.435
 31
0
  0
LINE
  5
21F
330
115
100
AcDbEntity
  8
Dimension033
100
AcDbLine
 10
438.478
 20
473.435
 30
0
 11
479.076
 21
473.435
 31
0
  0
LINE
  5
220
330
115
100
AcDbEntity
  8
Dimension033
100
AcDbLine
 10
479.076
 20
473.435
 30
0
 11
479.076
 21
123.435
 31
0
  0
TEXT
  5
221
330
115
100
AcDbEntity
  8
Dimension033
100
AcDbText
 10
474.076
 20
293.985
 30
0
 40
3.5
  1
350.000 mm
  7
STANDARD
 72
1
 11
479.076
 21
293.985
 31
0
100
AcDbText
  0
SOLID
  5
222
330
115
100
AcDbEntity
  8
0
 62
     0
100
AcDbTrace
 10
478.66
 20
468.435
 30
0
 11
479.493
 21
468.435
 31
0
 12
479.076
 22
473.435
 32
0
 13
479.076
 23
473.435
 33
0
  0
SOLID
  5
223
330
115
100
AcDbEntity
  8
0
 62
     0
100
AcDbTrace
 10
478.66
 20
128.435
 30
0
 11
479.493
 21
128.435
 31
0
 12
479.076
 22
123.435
 32
0
 13
479.076
 23
123.435
 33
0
  0
ENDBLK
  5
224
330
115
100
AcDbEntity
  8
Dimension033
100
AcDbBlockEnd
  0
BLOCK
  5
225
330
116
100
AcDbEntity
  8
Dimension034
100
AcDbBlockBegin
  2
*Dimension034
 70
   1
 10
0
 20
0
 30
0
  3
*Dimension034
  1
 
  0
LINE
  5
226
330
116
100
AcDbEntity
  8
Dimension034
100
AcDbLine
 10
617.228
 20
473.435
 30
0
 11
609.795
 21
490.787
 31
0
  0
LINE
  5
227
330
116
100
AcDbEntity
  8
Dimension034
100
AcDbLine
 10
619.728
 20
473.435
 30
0
 11
612.295
 21
490.787
 31
0
  0
LINE
  5
228
330
116
100
AcDbEntity
  8
Dimension034
100
AcDbLine
 10
612.295
 20
490.787
 30
0
 11
609.795
 21
490.787
 31
0
  0
TEXT
  5
229
330
116
100
AcDbEntity
  8
Dimension034
100
AcDbText
 10
609.795
 20
485.787
 30
0
 40
3.5
  1
2.500 mm
  7
STANDARD
 72
1
 11
609.795
 21
490.787
 31
0
100
AcDbText
  0
SOLID
  5
22A
330
116
100
AcDbEntity
  8
0
 62
     0
100
AcDbTrace
 10
607.459
 20
490.404
 30
0
 11
607.13
 21
491.17
 31
0
 12
612.295
 22
490.787
 32
0
 13
612.295
 23
490.787
 33
0
  0
SOLID
  5
22B
330
116
100
AcDbEntity
  8
0
 62
     0
100
AcDbTrace
 10
614.959
 20
490.404
 30
0
 11
614.63
 21
491.17
 31
0
 12
609.795
 22
490.787
 32
0
 13
609.795
 23
490.787
 33
0
  0
ENDBLK
  5
22C
330
116
100
AcDbEntity
  8
Dimension034
100
AcDbBlockEnd
  0
BLOCK
  5
22D
330
117
100
AcDbEntity
  8
Dimension035
100
AcDbBlockBegin
  2
*Dimension035
 70
   1
 10
0
 20
0
 30
0
  3
*Dimension035
  1
 
  0
LINE
  5
22E
330
117
100
AcDbEntity
  8
Dimension035
100
AcDbLine
 10
619.728
 20
473.435
 30
0
 11
622.345
 21
473.435
 31
0
  0
LINE
  5
22F
330
117
100
AcDbEntity
  8
Dimension035
100
AcDbLine
 10
619.728
 20
123.435
 30
0
 11
622.345
 21
123.435
 31
0
  0
LINE
  5
230
330
117
100
AcDbEntity
  8
Dimension035
100
AcDbLine
 10
622.345
 20
123.435
 30
0
 11
622.345
 21
473.435
 31
0
  0
TEXT
  5
231
330
117
100
AcDbEntity
  8
Dimension035
100
AcDbText
 10
627.345
 20
298.435
 30
0
 40
3.5
  1
350.000 mm
  7
STANDARD
 72
1
 11
622.345
 21
298.435
 31
0
100
AcDbText
  0
SOLID
  5
232
330
117
100
AcDbEntity
  8
0
 62
     0
100
AcDbTrace
 10
621.928
 20
128.435
 30
0
 11
622.761
 21
128.435
 31
0
 12
622.345
 22
123.435
 32
0
 13
622.345
 23
123.435
 33
0
  0
SOLID
  5
233
330
117
100
AcDbEntity
  8
0
 62
     0
100
AcDbTrace
 10
621.928
 20
468.435
 30
0
 11
622.761
 21
468.435
 31
0
 12
622.345
 22
473.435
 32
0
 13
622.345
 23
473.435
 33
0
  0
ENDBLK
  5
234
330
117
100
AcDbEntity
  8
Dimension035
100
AcDbBlockEnd
  0
BLOCK
  5
235
330
118
100
AcDbEntity
  8
Dimension036
100
AcDbBlockBegin
  2
*Dimension036
 70
   1
 10
0
 20
0
 30
0
  3
*Dimension036
  1
 
  0
LINE
  5
236
330
118
100
AcDbEntity
  8
Dimension036
100
AcDbLine
 10
108.478
 20
664.685
 30
0
 11
108.478
 21
687.642
 31
0
  0
LINE
  5
237
330
118
100
AcDbEntity
  8
Dimension036
100
AcDbLine
 10
438.478
 20
664.685
 30
0
 11
438.478
 21
687.642
 31
0
  0
LINE
  5
238
330
118
100
AcDbEntity
  8
Dimension036
100
AcDbLine
 10
438.478
 20
687.642
 30
0
 11
108.478
 21
687.642
 31
0
  0
TEXT
  5
239
330
118
100
AcDbEntity
  8
Dimension036
100
AcDbText
 10
275.111
 20
682.642
 30
0
 40
3.5
  1
330.000 mm
  7
STANDARD
 72
1
 11
275.111
 21
687.642
 31
0
100
AcDbText
  0
SOLID
  5
23A
330
118
100
AcDbEntity
  8
0
 62
     0
100
AcDbTrace
 10
433.478
 20
687.225
 30
0
 11
433.478
 21
688.058
 31
0
 12
438.478
 22
687.642
 32
0
 13
438.478
 23
687.642
 33
0
  0
SOLID
  5
23B
330
118
100
AcDbEntity
  8
0
 62
     0
100
AcDbTrace
 10
113.478
 20
687.225
 30
0
 11
113.478
 21
688.058
 31
0
 12
108.478
 22
687.642
 32
0
 13
108.478
 23
687.642
 33
0
  0
ENDBLK
  5
23C
330
118
100
AcDbEntity
  8
Dimension036
100
AcDbBlockEnd
  0
BLOCK
  5
23D
330
119
100
AcDbEntity
  8
Dimension037
100
AcDbBlockBegin
  2
*Dimension037
 70
   1
 10
0
 20
0
 30
0
  3
*Dimension037
  1
 
  0
LINE
  5
23E
330
119
100
AcDbEntity
  8
Dimension037
100
AcDbLine
 10
438.478
 20
662.185
 30
0
 11
450.62
 21
641.193
 31
0
  0
LINE
  5
23F
330
119
100
AcDbEntity
  8
Dimension037
100
AcDbLine
 10
438.478
 20
664.685
 30
0
 11
450.62
 21
643.693
 31
0
  0
LINE
  5
240
330
119
100
AcDbEntity
  8
Dimension037
100
AcDbLine
 10
450.62
 20
643.693
 30
0
 11
450.62
 21
641.193
 31
0
  0
TEXT
  5
241
330
119
100
AcDbEntity
  8
Dimension037
100
AcDbText
 10
445.62
 20
641.193
 30
0
 40
3.5
  1
2.500 mm
  7
STANDARD
 72
1
 11
450.62
 21
641.193
 31
0
100
AcDbText
  0
SOLID
  5
242
330
119
100
AcDbEntity
  8
0
 62
     0
100
AcDbTrace
 10
450.412
 20
639.054
 30
0
 11
450.829
 21
638.332
 31
0
 12
450.62
 22
643.693
 32
0
 13
450.62
 23
643.693
 33
0
  0
SOLID
  5
243
330
119
100
AcDbEntity
  8
0
 62
     0
100
AcDbTrace
 10
450.412
 20
646.554
 30
0
 11
450.829
 21
645.832
 31
0
 12
450.62
 22
641.193
 32
0
 13
450.62
 23
641.193
 33
0
  0
ENDBLK
  5
244
330
119
100
AcDbEntity
  8
Dimension037
100
AcDbBlockEnd
  0
ENDSEC
  0
SECTION
  2
ENTITIES
  0
LINE
  5
301
330
112
100
AcDbEntity
  8
ProjItem015
100
AcDbLine
 10
108.478
 20
473.435
 30
0
 11
438.478
 21
473.435
 31
0
  0
LINE
  5
302
330
112
100
AcDbEntity
  8
ProjItem015
100
AcDbLine
 10
438.478
 20
473.435
 30
0
 11
438.478
 21
123.435
 31
0
  0
LINE
  5
303
330
112
100
AcDbEntity
  8
ProjItem015
100
AcDbLine
 10
438.478
 20
123.435
 30
0
 11
108.478
 21
123.435
 31
0
  0
LINE
  5
304
330
112
100
AcDbEntity
  8
ProjItem015
100
AcDbLine
 10
108.478
 20
123.435
 30
0
 11
108.478
 21
473.435
 31
0
  0
LINE
  5
305
330
112
100
AcDbEntity
  8
ProjItem016
100
AcDbLine
 10
438.478
 20
662.185
 30
0
 11
438.478
 21
664.685
 31
0
  0
LINE
  5
306
330
112
100
AcDbEntity
  8
ProjItem016
100
AcDbLine
 10
108.478
 20
662.185
 30
0
 11
108.478
 21
664.685
 31
0
  0
LINE
  5
307
330
112
100
AcDbEntity
  8
ProjItem016
100
AcDbLine
 10
438.478
 20
662.185
 30
0
 11
108.478
 21
662.185
 31
0
  0
LINE
  5
308
330
112
100
AcDbEntity
  8
ProjItem016
100
AcDbLine
 10
438.478
 20
664.685
 30
0
 11
108.478
 21
664.685
 31
0
  0
LINE
  5
309
330
112
100
AcDbEntity
  8
ProjItem017
100
AcDbLine
 10
617.228
 20
473.435
 30
0
 11
619.728
 21
473.435
 31
0
  0
LINE
  5
30A
330
112
100
AcDbEntity
  8
ProjItem017
100
AcDbLine
 10
617.228
 20
123.435
 30
0
 11
619.728
 21
123.435
 31
0
  0
LINE
  5
30B
330
112
100
AcDbEntity
  8
ProjItem017
100
AcDbLine
 10
617.228
 20
123.435
 30
0
 11
617.228
 21
473.435
 31
0
  0
LINE
  5
30C
330
112
100
AcDbEntity
  8
ProjItem017
100
AcDbLine
 10
619.728
 20
123.435
 30
0
 11
619.728
 21
473.435
 31
0
  0
DIMENSION
  5
30D
330
112
100
AcDbEntity
  8
Dimension032
100
AcDbDimension
  2
*Dimension032
 10
270.697
 20
508.482
 30
0
 11
270.697
 21
513.482
 31
0
 70
1
  1
330.000 mm
  3
STANDARD
100
AcDbAlignedDimension
 13
108.478
 23
473.435
 33
0
 14
438.478
 24
473.435
 34
0
  0
DIMENSION
  5
30E
330
112
100
AcDbEntity
  8
Dimension033
100
AcDbDimension
  2
*Dimension033
 10
479.076
 20
293.985
 30
0
 11
474.076
 21
293.985
 31
0
 70
1
  1
350.000 mm
  3
STANDARD
100
AcDbAlignedDimension
 13
438.478
 23
473.435
 33
0
 14
438.478
 24
123.435
 34
0
  0
DIMENSION
  5
30F
330
112
100
AcDbEntity
  8
Dimension034
100
AcDbDimension
  2
*Dimension034
 10
609.795
 20
490.787
 30
0
 11
609.795
 21
485.787
 31
0
 70
1
  1
2.500 mm
  3
STANDARD
100
AcDbAlignedDimension
 13
619.728
 23
473.435
 33
0
 14
617.228
 24
473.435
 34
0
  0
DIMENSION
  5
310
330
112
100
AcDbEntity
  8
Dimension035
100
AcDbDimension
  2
*Dimension035
 10
622.345
 20
298.435
 30
0
 11
627.345
 21
298.435
 31
0
 70
1
  1
350.000 mm
  3
STANDARD
100
AcDbAlignedDimension
 13
619.728
 23
123.435
 33
0
 14
619.728
 24
473.435
 34
0
  0
LINE
  5
311
330
112
100
AcDbEntity
  8
View
100
AcDbLine
 10
908.342
 20
804.264
 30
0
 11
906.574
 21
803.243
 31
0
  0
LINE
  5
312
330
112
100
AcDbEntity
  8
View
100
AcDbLine
 10
1141.69
 20
669.542
 30
0
 11
1139.92
 21
668.521
 31
0
  0
LINE
  5
313
330
112
100
AcDbEntity
  8
View
100
AcDbLine
 10
908.342
 20
804.264
 30
0
 11
1141.69
 21
669.542
 31
0
  0
LINE
  5
314
330
112
100
AcDbEntity
  8
View
100
AcDbLine
 10
906.574
 20
803.243
 30
0
 11
1139.92
 21
668.521
 31
0
  0
LINE
  5
315
330
112
100
AcDbEntity
  8
View
100
AcDbLine
 10
1141.69
 20
383.768
 30
0
 11
1139.92
 21
382.748
 31
0
  0
LINE
  5
316
330
112
100
AcDbEntity
  8
View
100
AcDbLine
 10
1141.69
 20
669.542
 30
0
 11
1141.69
 21
383.768
 31
0
  0
LINE
  5
317
330
112
100
AcDbEntity
  8
View
100
AcDbLine
 10
1139.92
 20
668.521
 30
0
 11
1139.92
 21
382.748
 31
0
  0
LINE
  5
318
330
112
100
AcDbEntity
  8
View
100
AcDbLine
 10
1139.92
 20
382.748
 30
0
 11
906.574
 21
517.469
 31
0
  0
LINE
  5
319
330
112
100
AcDbEntity
  8
View
100
AcDbLine
 10
906.574
 20
517.469
 30
0
 11
906.574
 21
803.243
 31
0
  0
DIMENSION
  5
31A
330
112
100
AcDbEntity
  8
Dimension036
100
AcDbDimension
  2
*Dimension036
 10
275.111
 20
687.642
 30
0
 11
275.111
 21
682.642
 31
0
 70
1
  1
330.000 mm
  3
STANDARD
100
AcDbAlignedDimension
 13
438.478
 23
664.685
 33
0
 14
108.478
 24
664.685
 34
0
  0
DIMENSION
  5
31B
330
112
100
AcDbEntity
  8
Dimension037
100
AcDbDimension
  2
*Dimension037
 10
450.62
 20
641.193
 30
0
 11
445.62
 21
641.193
 31
0
 70
1
  1
2.500 mm
  3
STANDARD
100
AcDbAlignedDimension
 13
438.478
 23
664.685
 33
0
 14
438.478
 24
662.185
 34
0
  0
LINE
  5
31C
330
112
100
AcDbEntity
  8
View019
100
AcDbLine
 10
897.036
 20
803.89
 30
0
 11
895.355
 21
803.325
 31
0
  0
LINE
  5
31D
330
112
100
AcDbEntity
  8
View019
100
AcDbLine
 10
1141.37
 20
736.226
 30
0
 11
1139.69
 21
735.662
 31
0
  0
LINE
  5
31E
330
112
100
AcDbEntity
  8
View019
100
AcDbLine
 10
897.036
 20
803.89
 30
0
 11
1141.37
 21
736.226
 31
0
  0
LINE
  5
31F
330
112
100
AcDbEntity
  8
View019
100
AcDbLine
 10
895.355
 20
803.325
 30
0
 11
1139.69
 21
735.662
 31
0
  0
LINE
  5
320
330
112
100
AcDbEntity
  8
View019
100
AcDbLine
 10
1141.37
 20
402.909
 30
0
 11
1139.69
 21
402.344
 31
0
  0
LINE
  5
321
330
112
100
AcDbEntity
  8
View019
100
AcDbLine
 10
1141.37
 20
736.226
 30
0
 11
1141.37
 21
402.909
 31
0
  0
LINE
  5
322
330
112
100
AcDbEntity
  8
View019
100
AcDbLine
 10
1139.69
 20
735.662
 30
0
 11
1139.69
 21
402.344
 31
0
  0
LINE
  5
323
330
112
100
AcDbEntity
  8
View019
100
AcDbLine
 10
1139.69
 20
402.344
 30
0
 11
895.355
 21
470.008
 31
0
  0
LINE
  5
324
330
112
100
AcDbEntity
  8
View019
100
AcDbLine
 10
895.355
 20
470.008
 30
0
 11
895.355
 21
803.325
 31
0
  0
ENDSEC
  0
SECTION
  2
OBJECTS
  0
DICTIONARY
  5
500
330
0
100
AcDbDictionary
  3
ACAD_GROUP
350
501
  0
DICTIONARY
  5
501
330
500
100
AcDbDictionary
  0
ENDSEC
  0
EOF