999
FreeCAD v0.18.4 
  0
SECTION
  2
HEADER
  9
$ACADVER
  1
AC1014
  9
$ACADMAINTVER
 70
     9
  9
$DWGCODEPAGE
  3
ANSI_1252
  9
$TEXTSTYLE
  7
STANDARD
  9
$DIMSTYLE
  2
STANDARD
  9
$DIMTXSTY
  7
STANDARD
  9
$CMLSTYLE
  2
STANDARD
  9
$HANDSEED
  5
FFF
  0
ENDSEC
  0
SECTION
  2
CLASSES
  0
CLASS
  1
ACDBDICTIONARYWDFLT
  2
AcDbDictionaryWithDefault
  3
ObjectDBX Classes
 90
        0
280
     0
281
     0
  0
CLASS
  1
XRECORD
  2
AcDbXrecord
  3
ObjectDBX Classes
 90
        0
280
     0
281
     0
  0
CLASS
  1
LWPOLYLINE
  2
AcDbPolyline
  3
ObjectDBX Classes
 90
        0
280
     0
281
     1
  0
ENDSEC
  0
SECTION
  2
TABLES
  0
TABLE
  2
VPORT
  5
20
330
0
100
AcDbSymbolTable
 70
     1
  0
VPORT
  5
21
330
20
100
AcDbSymbolTableRecord
100
AcDbViewportTableRecord
  2
*ACTIVE
 70
     0
  0
ENDTAB
  0
TABLE
  2
LTYPE
  5
22
330
0
100
AcDbSymbolTable
 70
     1
  0
LTYPE
  5
23
330
21
100
AcDbSymbolTableRecord
100
AcDbLinetypeTableRecord
  2
BYBLOCK
 70
     0
  3

 72
    65
 73
     0
 40
0.0
  0
LTYPE
  5
24
330
21
100
AcDbSymbolTableRecord
100
AcDbLinetypeTableRecord
  2
BYLAYER
 70
     0
  3

 72
    65
 73
     0
 40
0.0
  0
LTYPE
  5
25
330
21
100
AcDbSymbolTableRecord
100
AcDbLinetypeTableRecord
  2
CONTINUOUS
 70
     0
  3
Solid line
 72
    65
 73
     0
 40
0.0
  0
ENDTAB
  0
TABLE
  2
LAYER
  5
31
330
0
100
AcDbSymbolTable
 70
24
  0
LAYER
  5
32
330
31
100
AcDbSymbolTableRecord
100
AcDbLayerTableRecord
  2
0
 70
   0
 62
   7
  6
CONTINUOUS
  0
LAYER
  5
33
330
31
100
AcDbSymbolTableRecord
100
AcDbLayerTableRecord
  2
ProjItem009
 70
    0
 62
    7
  6
CONTINUOUS
  0
LAYER
  5
34
330
31
100
AcDbSymbolTableRecord
100
AcDbLayerTableRecord
  2
ProjItem010
 70
    0
 62
    7
  6
CONTINUOUS
  0
LAYER
  5
35
330
31
100
AcDbSymbolTableRecord
100
AcDbLayerTableRecord
  2
ProjItem011
 70
    0
 62
    7
  6
CONTINUOUS
  0
LAYER
  5
36
330
31
100
AcDbSymbolTableRecord
100
AcDbLayerTableRecord
  2
View017
 70
    0
 62
    7
  6
CONTINUOUS
  0
LAYER
  5
37
330
31
100
AcDbSymbolTableRecord
100
AcDbLayerTableRecord
  2
Dimension011
 70
    0
 62
    7
  6
CONTINUOUS
  0
LAYER
  5
38
330
31
100
AcDbSymbolTableRecord
100
AcDbLayerTableRecord
  2
Dimension012
 70
    0
 62
    7
  6
CONTINUOUS
  0
LAYER
  5
39
330
31
100
AcDbSymbolTableRecord
100
AcDbLayerTableRecord
  2
Detail
 70
    0
 62
    7
  6
CONTINUOUS
  0
LAYER
  5
3A
330
31
100
AcDbSymbolTableRecord
100
AcDbLayerTableRecord
  2
Dimension013
 70
    0
 62
    7
  6
CONTINUOUS
  0
LAYER
  5
3B
330
31
100
AcDbSymbolTableRecord
100
AcDbLayerTableRecord
  2
Dimension014
 70
    0
 62
    7
  6
CONTINUOUS
  0
LAYER
  5
3C
330
31
100
AcDbSymbolTableRecord
100
AcDbLayerTableRecord
  2
Dimension015
 70
    0
 62
    7
  6
CONTINUOUS
  0
LAYER
  5
3D
330
31
100
AcDbSymbolTableRecord
100
AcDbLayerTableRecord
  2
Dimension016
 70
    0
 62
    7
  6
CONTINUOUS
  0
LAYER
  5
3E
330
31
100
AcDbSymbolTableRecord
100
AcDbLayerTableRecord
  2
Dimension017
 70
    0
 62
    7
  6
CONTINUOUS
  0
LAYER
  5
3F
330
31
100
AcDbSymbolTableRecord
100
AcDbLayerTableRecord
  2
Dimension022
 70
    0
 62
    7
  6
CONTINUOUS
  0
LAYER
  5
40
330
31
100
AcDbSymbolTableRecord
100
AcDbLayerTableRecord
  2
Dimension023
 70
    0
 62
    7
  6
CONTINUOUS
  0
LAYER
  5
41
330
31
100
AcDbSymbolTableRecord
100
AcDbLayerTableRecord
  2
Dimension040
 70
    0
 62
    7
  6
CONTINUOUS
  0
LAYER
  5
42
330
31
100
AcDbSymbolTableRecord
100
AcDbLayerTableRecord
  2
Dimension041
 70
    0
 62
    7
  6
CONTINUOUS
  0
LAYER
  5
43
330
31
100
AcDbSymbolTableRecord
100
AcDbLayerTableRecord
  2
Dimension043
 70
    0
 62
    7
  6
CONTINUOUS
  0
LAYER
  5
44
330
31
100
AcDbSymbolTableRecord
100
AcDbLayerTableRecord
  2
Dimension044
 70
    0
 62
    7
  6
CONTINUOUS
  0
LAYER
  5
45
330
31
100
AcDbSymbolTableRecord
100
AcDbLayerTableRecord
  2
Dimension045
 70
    0
 62
    7
  6
CONTINUOUS
  0
LAYER
  5
46
330
31
100
AcDbSymbolTableRecord
100
AcDbLayerTableRecord
  2
Dimension046
 70
    0
 62
    7
  6
CONTINUOUS
  0
LAYER
  5
47
330
31
100
AcDbSymbolTableRecord
100
AcDbLayerTableRecord
  2
Dimension047
 70
    0
 62
    7
  6
CONTINUOUS
  0
LAYER
  5
48
330
31
100
AcDbSymbolTableRecord
100
AcDbLayerTableRecord
  2
Dimension048
 70
    0
 62
    7
  6
CONTINUOUS
  0
LAYER
  5
49
330
31
100
AcDbSymbolTableRecord
100
AcDbLayerTableRecord
  2
Dimension049
 70
    0
 62
    7
  6
CONTINUOUS
  0
ENDTAB
  0
TABLE
  2
STYLE
  5
60
330
0
100
AcDbSymbolTable
 70
     2
  0
STYLE
  5
61
330
60
100
AcDbSymbolTableRecord
100
AcDbTextStyleTableRecord
  2
STANDARD
 70
     0
 40
0.0
 41
1.0
 50
0.0
 71
     0
 42
2.5
  3
arial.ttf
  4

  0
STYLE
  5
62
330
60
100
AcDbSymbolTableRecord
100
AcDbTextStyleTableRecord
  2
ANNOTATIVE
 70
     0
 40
0.0
 41
1.0
 50
0.0
 71
     0
 42
2.5
  3
arial.ttf
  4

  0
ENDTAB
  0
TABLE
  2
VIEW
  5
63
330
0
100
AcDbSymbolTable
 70
     0
  0
ENDTAB
  0
TABLE
  2
UCS
  5
64
330
0
100
AcDbSymbolTable
 70
     0
  0
ENDTAB
  0
TABLE
  2
APPID
  5
65
330
0
100
AcDbSymbolTable
 70
     2
  0
APPID
  5
66
330
65
100
AcDbSymbolTableRecord
100
AcDbRegAppTableRecord
  2
ACAD
 70
     0
  0
APPID
  5
67
330
65
100
AcDbSymbolTableRecord
100
AcDbRegAppTableRecord
  2
ACADANNOTATIVE
 70
     0
  0
ENDTAB
  0
TABLE
  2
DIMSTYLE
  5
68
330
0
100
AcDbSymbolTable
 70
     2
  0
DIMSTYLE
105
69
330
68
100
AcDbSymbolTableRecord
100
AcDbDimStyleTableRecord
  2
STANDARD
 70
     0
  3

  4

  5

  6

  7

 40
0.0
 41
2.5
 42
0.625
 43
3.75
 44
1.25
 45
0.0
 46
0.0
 47
0.0
 48
0.0
140
2.5
141
2.5
142
0.0
143
0.03937007874016
144
1.0
145
0.0
146
1.0
147
0.625
 71
     0
 72
     0
 73
     0
 74
     0
 75
     0
 76
     0
 77
     1
 78
     8
170
     0
171
     3
172
     1
173
     0
174
     0
175
     0
176
     0
177
     0
178
     0
270
     2
271
     2
272
     2
273
     2
274
     3
340
61
275
     0
280
     0
281
     0
282
     0
283
     0
284
     8
285
     0
286
     0
287
     3
288
     0
  0
ENDTAB
  0
TABLE
  2
BLOCK_RECORD
  5
111
330
0
100
AcDbSymbolTable
  70
5
  0
BLOCK_RECORD
  5
112
330
111
100
AcDbSymbolTableRecord
100
AcDbBlockTableRecord
  2
*MODEL_SPACE
  0
BLOCK_RECORD
  5
113
330
111
100
AcDbSymbolTableRecord
100
AcDbBlockTableRecord
  2
*PAPER_SPACE
  0
BLOCK_RECORD
  5
114
330
111
100
AcDbSymbolTableRecord
100
AcDbBlockTableRecord
  2
*Dimension011
  0
BLOCK_RECORD
  5
115
330
111
100
AcDbSymbolTableRecord
100
AcDbBlockTableRecord
  2
*Dimension012
  0
BLOCK_RECORD
  5
116
330
111
100
AcDbSymbolTableRecord
100
AcDbBlockTableRecord
  2
*Dimension013
  0
BLOCK_RECORD
  5
117
330
111
100
AcDbSymbolTableRecord
100
AcDbBlockTableRecord
  2
*Dimension014
  0
BLOCK_RECORD
  5
118
330
111
100
AcDbSymbolTableRecord
100
AcDbBlockTableRecord
  2
*Dimension015
  0
BLOCK_RECORD
  5
119
330
111
100
AcDbSymbolTableRecord
100
AcDbBlockTableRecord
  2
*Dimension016
  0
BLOCK_RECORD
  5
11A
330
111
100
AcDbSymbolTableRecord
100
AcDbBlockTableRecord
  2
*Dimension017
  0
BLOCK_RECORD
  5
11B
330
111
100
AcDbSymbolTableRecord
100
AcDbBlockTableRecord
  2
*Dimension022
  0
BLOCK_RECORD
  5
11C
330
111
100
AcDbSymbolTableRecord
100
AcDbBlockTableRecord
  2
*Dimension023
  0
BLOCK_RECORD
  5
11D
330
111
100
AcDbSymbolTableRecord
100
AcDbBlockTableRecord
  2
*Dimension040
  0
BLOCK_RECORD
  5
11E
330
111
100
AcDbSymbolTableRecord
100
AcDbBlockTableRecord
  2
*Dimension041
  0
BLOCK_RECORD
  5
11F
330
111
100
AcDbSymbolTableRecord
100
AcDbBlockTableRecord
  2
*Dimension043
  0
BLOCK_RECORD
  5
120
330
111
100
AcDbSymbolTableRecord
100
AcDbBlockTableRecord
  2
*Dimension044
  0
BLOCK_RECORD
  5
121
330
111
100
AcDbSymbolTableRecord
100
AcDbBlockTableRecord
  2
*Dimension045
  0
BLOCK_RECORD
  5
122
330
111
100
AcDbSymbolTableRecord
100
AcDbBlockTableRecord
  2
*Dimension046
  0
BLOCK_RECORD
  5
123
330
111
100
AcDbSymbolTableRecord
100
AcDbBlockTableRecord
  2
*Dimension047
  0
BLOCK_RECORD
  5
124
330
111
100
AcDbSymbolTableRecord
100
AcDbBlockTableRecord
  2
*Dimension048
  0
BLOCK_RECORD
  5
125
330
111
100
AcDbSymbolTableRecord
100
AcDbBlockTableRecord
  2
*Dimension049
  0
ENDTAB
  0
ENDSEC
  0
SECTION
  2
BLOCKS
  0
BLOCK
  5
211
330
112
100
AcDbEntity
  8
0
100
AcDbBlockBegin
  2
*MODEL_SPACE
 70
   0
 10
0
 20
0
 30
0
  3
*MODEL_SPACE
  1
 
  0
ENDBLK
  5
212
330
112
100
AcDbEntity
  8
0
100
AcDbBlockEnd
  0
BLOCK
  5
213
330
113
100
AcDbEntity
 67
1
  8
0
100
AcDbBlockBegin
  2
*PAPER_SPACE
 70
   0
 10
0
 20
0
 30
0
  3
*PAPER_SPACE
  1
 
  0
ENDBLK
  5
214
330
113
100
AcDbEntity
 67
    1
  8
0
100
AcDbBlockEnd
  0
BLOCK
  5
215
330
114
100
AcDbEntity
  8
Dimension011
100
AcDbBlockBegin
  2
*Dimension011
 70
   1
 10
0
 20
0
 30
0
  3
*Dimension011
  1
 
  0
LINE
  5
216
330
114
100
AcDbEntity
  8
Dimension011
100
AcDbLine
 10
770.737
 20
131.838
 30
0
 11
810.178
 21
131.838
 31
0
  0
LINE
  5
217
330
114
100
AcDbEntity
  8
Dimension011
100
AcDbLine
 10
770.737
 20
481.838
 30
0
 11
810.178
 21
481.838
 31
0
  0
LINE
  5
218
330
114
100
AcDbEntity
  8
Dimension011
100
AcDbLine
 10
810.178
 20
481.838
 30
0
 11
810.178
 21
131.838
 31
0
  0
TEXT
  5
219
330
114
100
AcDbEntity
  8
Dimension011
100
AcDbText
 10
805.178
 20
310.057
 30
0
 40
3.5
  1
350.000 mm
  7
STANDARD
 72
1
 11
810.178
 21
310.057
 31
0
100
AcDbText
  0
SOLID
  5
21A
330
114
100
AcDbEntity
  8
0
 62
     0
100
AcDbTrace
 10
809.762
 20
476.838
 30
0
 11
810.595
 21
476.838
 31
0
 12
810.178
 22
481.838
 32
0
 13
810.178
 23
481.838
 33
0
  0
SOLID
  5
21B
330
114
100
AcDbEntity
  8
0
 62
     0
100
AcDbTrace
 10
809.762
 20
136.838
 30
0
 11
810.595
 21
136.838
 31
0
 12
810.178
 22
131.838
 32
0
 13
810.178
 23
131.838
 33
0
  0
ENDBLK
  5
21C
330
114
100
AcDbEntity
  8
Dimension011
100
AcDbBlockEnd
  0
BLOCK
  5
21D
330
115
100
AcDbEntity
  8
Dimension012
100
AcDbBlockBegin
  2
*Dimension012
 70
   1
 10
0
 20
0
 30
0
  3
*Dimension012
  1
 
  0
LINE
  5
21E
330
115
100
AcDbEntity
  8
Dimension012
100
AcDbLine
 10
770.737
 20
481.838
 30
0
 11
770.737
 21
560.243
 31
0
  0
LINE
  5
21F
330
115
100
AcDbEntity
  8
Dimension012
100
AcDbLine
 10
440.737
 20
481.838
 30
0
 11
440.737
 21
560.243
 31
0
  0
LINE
  5
220
330
115
100
AcDbEntity
  8
Dimension012
100
AcDbLine
 10
440.737
 20
560.243
 30
0
 11
770.737
 21
560.243
 31
0
  0
TEXT
  5
221
330
115
100
AcDbEntity
  8
Dimension012
100
AcDbText
 10
604.865
 20
565.243
 30
0
 40
3.5
  1
330.000 mm
  7
STANDARD
 72
1
 11
604.865
 21
560.243
 31
0
100
AcDbText
  0
SOLID
  5
222
330
115
100
AcDbEntity
  8
0
 62
     0
100
AcDbTrace
 10
445.737
 20
559.826
 30
0
 11
445.737
 21
560.66
 31
0
 12
440.737
 22
560.243
 32
0
 13
440.737
 23
560.243
 33
0
  0
SOLID
  5
223
330
115
100
AcDbEntity
  8
0
 62
     0
100
AcDbTrace
 10
765.737
 20
559.826
 30
0
 11
765.737
 21
560.66
 31
0
 12
770.737
 22
560.243
 32
0
 13
770.737
 23
560.243
 33
0
  0
ENDBLK
  5
224
330
115
100
AcDbEntity
  8
Dimension012
100
AcDbBlockEnd
  0
BLOCK
  5
225
330
116
100
AcDbEntity
  8
Dimension013
100
AcDbBlockBegin
  2
*Dimension013
 70
   1
 10
0
 20
0
 30
0
  3
*Dimension013
  1
 
  0
LINE
  5
226
330
116
100
AcDbEntity
  8
Dimension013
100
AcDbLine
 10
274.499
 20
348.713
 30
0
 11
196.499
 21
348.713
 31
0
  0
TEXT
  5
227
330
116
100
AcDbEntity
  8
Dimension013
100
AcDbText
 10
249.301
 20
335.032
 30
0
 40
3.5
  1
⌀39.000 mm
  7
STANDARD
 72
1
 11
249.301
 21
335.032
 31
0
100
AcDbText
  0
SOLID
  5
228
330
116
100
AcDbEntity
  8
0
 62
     0
100
AcDbTrace
 10
269.499
 20
348.296
 30
0
 11
269.499
 21
349.13
 31
0
 12
274.499
 22
348.713
 32
0
 13
274.499
 23
348.713
 33
0
  0
SOLID
  5
229
330
116
100
AcDbEntity
  8
0
 62
     0
100
AcDbTrace
 10
201.499
 20
348.296
 30
0
 11
201.499
 21
349.13
 31
0
 12
196.499
 22
348.713
 32
0
 13
196.499
 23
348.713
 33
0
  0
ENDBLK
  5
22A
330
116
100
AcDbEntity
  8
Dimension013
100
AcDbBlockEnd
  0
BLOCK
  5
22B
330
117
100
AcDbEntity
  8
Dimension014
100
AcDbBlockBegin
  2
*Dimension014
 70
   1
 10
0
 20
0
 30
0
  3
*Dimension014
  1
 
  0
LINE
  5
22C
330
117
100
AcDbEntity
  8
Dimension014
100
AcDbLine
 10
206.999
 20
316.713
 30
0
 11
199.999
 21
316.713
 31
0
  0
TEXT
  5
22D
330
117
100
AcDbEntity
  8
Dimension014
100
AcDbText
 10
242.399
 20
292.08
 30
0
 40
3.5
  1
⌀3.500 mm
  7
STANDARD
 72
1
 11
242.399
 21
292.08
 31
0
100
AcDbText
  0
SOLID
  5
22E
330
117
100
AcDbEntity
  8
0
 62
     0
100
AcDbTrace
 10
201.999
 20
316.296
 30
0
 11
201.999
 21
317.13
 31
0
 12
206.999
 22
316.713
 32
0
 13
206.999
 23
316.713
 33
0
  0
SOLID
  5
22F
330
117
100
AcDbEntity
  8
0
 62
     0
100
AcDbTrace
 10
204.999
 20
316.296
 30
0
 11
204.999
 21
317.13
 31
0
 12
199.999
 22
316.713
 32
0
 13
199.999
 23
316.713
 33
0
  0
ENDBLK
  5
230
330
117
100
AcDbEntity
  8
Dimension014
100
AcDbBlockEnd
  0
BLOCK
  5
231
330
118
100
AcDbEntity
  8
Dimension015
100
AcDbBlockBegin
  2
*Dimension015
 70
   1
 10
0
 20
0
 30
0
  3
*Dimension015
  1
 
  0
LINE
  5
232
330
118
100
AcDbEntity
  8
Dimension015
100
AcDbLine
 10
270.999
 20
316.713
 30
0
 11
263.999
 21
316.713
 31
0
  0
TEXT
  5
233
330
118
100
AcDbEntity
  8
Dimension015
100
AcDbText
 10
242.776
 20
300.606
 30
0
 40
3.5
  1
⌀3.500 mm
  7
STANDARD
 72
1
 11
242.776
 21
300.606
 31
0
100
AcDbText
  0
SOLID
  5
234
330
118
100
AcDbEntity
  8
0
 62
     0
100
AcDbTrace
 10
265.999
 20
316.296
 30
0
 11
265.999
 21
317.13
 31
0
 12
270.999
 22
316.713
 32
0
 13
270.999
 23
316.713
 33
0
  0
SOLID
  5
235
330
118
100
AcDbEntity
  8
0
 62
     0
100
AcDbTrace
 10
268.999
 20
316.296
 30
0
 11
268.999
 21
317.13
 31
0
 12
263.999
 22
316.713
 32
0
 13
263.999
 23
316.713
 33
0
  0
ENDBLK
  5
236
330
118
100
AcDbEntity
  8
Dimension015
100
AcDbBlockEnd
  0
BLOCK
  5
237
330
119
100
AcDbEntity
  8
Dimension016
100
AcDbBlockBegin
  2
*Dimension016
 70
   1
 10
0
 20
0
 30
0
  3
*Dimension016
  1
 
  0
LINE
  5
238
330
119
100
AcDbEntity
  8
Dimension016
100
AcDbLine
 10
206.999
 20
380.713
 30
0
 11
199.999
 21
380.713
 31
0
  0
TEXT
  5
239
330
119
100
AcDbEntity
  8
Dimension016
100
AcDbText
 10
238.32
 20
393.847
 30
0
 40
3.5
  1
⌀3.500 mm
  7
STANDARD
 72
1
 11
238.32
 21
393.847
 31
0
100
AcDbText
  0
SOLID
  5
23A
330
119
100
AcDbEntity
  8
0
 62
     0
100
AcDbTrace
 10
201.999
 20
380.296
 30
0
 11
201.999
 21
381.13
 31
0
 12
206.999
 22
380.713
 32
0
 13
206.999
 23
380.713
 33
0
  0
SOLID
  5
23B
330
119
100
AcDbEntity
  8
0
 62
     0
100
AcDbTrace
 10
204.999
 20
380.296
 30
0
 11
204.999
 21
381.13
 31
0
 12
199.999
 22
380.713
 32
0
 13
199.999
 23
380.713
 33
0
  0
ENDBLK
  5
23C
330
119
100
AcDbEntity
  8
Dimension016
100
AcDbBlockEnd
  0
BLOCK
  5
23D
330
11A
100
AcDbEntity
  8
Dimension017
100
AcDbBlockBegin
  2
*Dimension017
 70
   1
 10
0
 20
0
 30
0
  3
*Dimension017
  1
 
  0
LINE
  5
23E
330
11A
100
AcDbEntity
  8
Dimension017
100
AcDbLine
 10
270.999
 20
380.713
 30
0
 11
263.999
 21
380.713
 31
0
  0
TEXT
  5
23F
330
11A
100
AcDbEntity
  8
Dimension017
100
AcDbText
 10
237.262
 20
402.309
 30
0
 40
3.5
  1
⌀3.500 mm
  7
STANDARD
 72
1
 11
237.262
 21
402.309
 31
0
100
AcDbText
  0
SOLID
  5
240
330
11A
100
AcDbEntity
  8
0
 62
     0
100
AcDbTrace
 10
265.999
 20
380.296
 30
0
 11
265.999
 21
381.13
 31
0
 12
270.999
 22
380.713
 32
0
 13
270.999
 23
380.713
 33
0
  0
SOLID
  5
241
330
11A
100
AcDbEntity
  8
0
 62
     0
100
AcDbTrace
 10
268.999
 20
380.296
 30
0
 11
268.999
 21
381.13
 31
0
 12
263.999
 22
380.713
 32
0
 13
263.999
 23
380.713
 33
0
  0
ENDBLK
  5
242
330
11A
100
AcDbEntity
  8
Dimension017
100
AcDbBlockEnd
  0
BLOCK
  5
243
330
11B
100
AcDbEntity
  8
Dimension022
100
AcDbBlockBegin
  2
*Dimension022
 70
   1
 10
0
 20
0
 30
0
  3
*Dimension022
  1
 
  0
LINE
  5
244
330
11B
100
AcDbEntity
  8
Dimension022
100
AcDbLine
 10
951.987
 20
481.838
 30
0
 11
926.596
 21
496.96
 31
0
  0
LINE
  5
245
330
11B
100
AcDbEntity
  8
Dimension022
100
AcDbLine
 10
949.487
 20
481.838
 30
0
 11
924.096
 21
496.96
 31
0
  0
LINE
  5
246
330
11B
100
AcDbEntity
  8
Dimension022
100
AcDbLine
 10
924.096
 20
496.96
 30
0
 11
926.596
 21
496.96
 31
0
  0
TEXT
  5
247
330
11B
100
AcDbEntity
  8
Dimension022
100
AcDbText
 10
924.096
 20
501.96
 30
0
 40
3.5
  1
2.500 mm
  7
STANDARD
 72
1
 11
924.096
 21
496.96
 31
0
100
AcDbText
  0
SOLID
  5
248
330
11B
100
AcDbEntity
  8
0
 62
     0
100
AcDbTrace
 10
929.454
 20
496.747
 30
0
 11
928.738
 21
497.173
 31
0
 12
924.096
 22
496.96
 32
0
 13
924.096
 23
496.96
 33
0
  0
SOLID
  5
249
330
11B
100
AcDbEntity
  8
0
 62
     0
100
AcDbTrace
 10
921.954
 20
496.747
 30
0
 11
921.238
 21
497.173
 31
0
 12
926.596
 22
496.96
 32
0
 13
926.596
 23
496.96
 33
0
  0
ENDBLK
  5
24A
330
11B
100
AcDbEntity
  8
Dimension022
100
AcDbBlockEnd
  0
BLOCK
  5
24B
330
11C
100
AcDbEntity
  8
Dimension023
100
AcDbBlockBegin
  2
*Dimension023
 70
   1
 10
0
 20
0
 30
0
  3
*Dimension023
  1
 
  0
LINE
  5
24C
330
11C
100
AcDbEntity
  8
Dimension023
100
AcDbLine
 10
951.987
 20
481.838
 30
0
 11
968.922
 21
481.838
 31
0
  0
LINE
  5
24D
330
11C
100
AcDbEntity
  8
Dimension023
100
AcDbLine
 10
951.987
 20
131.838
 30
0
 11
968.922
 21
131.838
 31
0
  0
LINE
  5
24E
330
11C
100
AcDbEntity
  8
Dimension023
100
AcDbLine
 10
968.922
 20
131.838
 30
0
 11
968.922
 21
481.838
 31
0
  0
TEXT
  5
24F
330
11C
100
AcDbEntity
  8
Dimension023
100
AcDbText
 10
973.922
 20
313.54
 30
0
 40
3.5
  1
350.000 mm
  7
STANDARD
 72
1
 11
968.922
 21
313.54
 31
0
100
AcDbText
  0
SOLID
  5
250
330
11C
100
AcDbEntity
  8
0
 62
     0
100
AcDbTrace
 10
968.505
 20
136.838
 30
0
 11
969.338
 21
136.838
 31
0
 12
968.922
 22
131.838
 32
0
 13
968.922
 23
131.838
 33
0
  0
SOLID
  5
251
330
11C
100
AcDbEntity
  8
0
 62
     0
100
AcDbTrace
 10
968.505
 20
476.838
 30
0
 11
969.338
 21
476.838
 31
0
 12
968.922
 22
481.838
 32
0
 13
968.922
 23
481.838
 33
0
  0
ENDBLK
  5
252
330
11C
100
AcDbEntity
  8
Dimension023
100
AcDbBlockEnd
  0
BLOCK
  5
253
330
11D
100
AcDbEntity
  8
Dimension040
100
AcDbBlockBegin
  2
*Dimension040
 70
   1
 10
0
 20
0
 30
0
  3
*Dimension040
  1
 
  0
LINE
  5
254
330
11D
100
AcDbEntity
  8
Dimension040
100
AcDbLine
 10
440.737
 20
673.088
 30
0
 11
440.737
 21
698.363
 31
0
  0
LINE
  5
255
330
11D
100
AcDbEntity
  8
Dimension040
100
AcDbLine
 10
770.737
 20
673.088
 30
0
 11
770.737
 21
698.363
 31
0
  0
LINE
  5
256
330
11D
100
AcDbEntity
  8
Dimension040
100
AcDbLine
 10
770.737
 20
698.363
 30
0
 11
440.737
 21
698.363
 31
0
  0
TEXT
  5
257
330
11D
100
AcDbEntity
  8
Dimension040
100
AcDbText
 10
594.571
 20
693.363
 30
0
 40
3.5
  1
330.000 mm
  7
STANDARD
 72
1
 11
594.571
 21
698.363
 31
0
100
AcDbText
  0
SOLID
  5
258
330
11D
100
AcDbEntity
  8
0
 62
     0
100
AcDbTrace
 10
765.737
 20
697.946
 30
0
 11
765.737
 21
698.779
 31
0
 12
770.737
 22
698.363
 32
0
 13
770.737
 23
698.363
 33
0
  0
SOLID
  5
259
330
11D
100
AcDbEntity
  8
0
 62
     0
100
AcDbTrace
 10
445.737
 20
697.946
 30
0
 11
445.737
 21
698.779
 31
0
 12
440.737
 22
698.363
 32
0
 13
440.737
 23
698.363
 33
0
  0
ENDBLK
  5
25A
330
11D
100
AcDbEntity
  8
Dimension040
100
AcDbBlockEnd
  0
BLOCK
  5
25B
330
11E
100
AcDbEntity
  8
Dimension041
100
AcDbBlockBegin
  2
*Dimension041
 70
   1
 10
0
 20
0
 30
0
  3
*Dimension041
  1
 
  0
LINE
  5
25C
330
11E
100
AcDbEntity
  8
Dimension041
100
AcDbLine
 10
770.737
 20
670.588
 30
0
 11
784.846
 21
650.094
 31
0
  0
LINE
  5
25D
330
11E
100
AcDbEntity
  8
Dimension041
100
AcDbLine
 10
770.737
 20
673.088
 30
0
 11
784.846
 21
652.594
 31
0
  0
LINE
  5
25E
330
11E
100
AcDbEntity
  8
Dimension041
100
AcDbLine
 10
784.846
 20
652.594
 30
0
 11
784.846
 21
650.094
 31
0
  0
TEXT
  5
25F
330
11E
100
AcDbEntity
  8
Dimension041
100
AcDbText
 10
779.846
 20
650.094
 30
0
 40
3.5
  1
2.500 mm
  7
STANDARD
 72
1
 11
784.846
 21
650.094
 31
0
100
AcDbText
  0
SOLID
  5
260
330
11E
100
AcDbEntity
  8
0
 62
     0
100
AcDbTrace
 10
784.609
 20
647.937
 30
0
 11
785.082
 21
647.25
 31
0
 12
784.846
 22
652.594
 32
0
 13
784.846
 23
652.594
 33
0
  0
SOLID
  5
261
330
11E
100
AcDbEntity
  8
0
 62
     0
100
AcDbTrace
 10
784.609
 20
655.437
 30
0
 11
785.082
 21
654.75
 31
0
 12
784.846
 22
650.094
 32
0
 13
784.846
 23
650.094
 33
0
  0
ENDBLK
  5
262
330
11E
100
AcDbEntity
  8
Dimension041
100
AcDbBlockEnd
  0
BLOCK
  5
263
330
11F
100
AcDbEntity
  8
Dimension043
100
AcDbBlockBegin
  2
*Dimension043
 70
   1
 10
0
 20
0
 30
0
  3
*Dimension043
  1
 
  0
LINE
  5
264
330
11F
100
AcDbEntity
  8
Dimension043
100
AcDbLine
 10
270.999
 20
316.713
 30
0
 11
293.229
 21
316.713
 31
0
  0
LINE
  5
265
330
11F
100
AcDbEntity
  8
Dimension043
100
AcDbLine
 10
270.999
 20
380.713
 30
0
 11
293.229
 21
380.713
 31
0
  0
LINE
  5
266
330
11F
100
AcDbEntity
  8
Dimension043
100
AcDbLine
 10
293.229
 20
380.713
 30
0
 11
293.229
 21
316.713
 31
0
  0
TEXT
  5
267
330
11F
100
AcDbEntity
  8
Dimension043
100
AcDbText
 10
288.229
 20
350.724
 30
0
 40
3.5
  1
32.000 mm
  7
STANDARD
 72
1
 11
293.229
 21
350.724
 31
0
100
AcDbText
  0
SOLID
  5
268
330
11F
100
AcDbEntity
  8
0
 62
     0
100
AcDbTrace
 10
292.812
 20
375.713
 30
0
 11
293.645
 21
375.713
 31
0
 12
293.229
 22
380.713
 32
0
 13
293.229
 23
380.713
 33
0
  0
SOLID
  5
269
330
11F
100
AcDbEntity
  8
0
 62
     0
100
AcDbTrace
 10
292.812
 20
321.713
 30
0
 11
293.645
 21
321.713
 31
0
 12
293.229
 22
316.713
 32
0
 13
293.229
 23
316.713
 33
0
  0
ENDBLK
  5
26A
330
11F
100
AcDbEntity
  8
Dimension043
100
AcDbBlockEnd
  0
BLOCK
  5
26B
330
120
100
AcDbEntity
  8
Dimension044
100
AcDbBlockBegin
  2
*Dimension044
 70
   1
 10
0
 20
0
 30
0
  3
*Dimension044
  1
 
  0
LINE
  5
26C
330
120
100
AcDbEntity
  8
Dimension044
100
AcDbLine
 10
267.499
 20
380.713
 30
0
 11
267.499
 21
407.095
 31
0
  0
LINE
  5
26D
330
120
100
AcDbEntity
  8
Dimension044
100
AcDbLine
 10
203.499
 20
380.713
 30
0
 11
203.499
 21
407.095
 31
0
  0
LINE
  5
26E
330
120
100
AcDbEntity
  8
Dimension044
100
AcDbLine
 10
203.499
 20
407.095
 30
0
 11
267.499
 21
407.095
 31
0
  0
TEXT
  5
26F
330
120
100
AcDbEntity
  8
Dimension044
100
AcDbText
 10
237.614
 20
412.095
 30
0
 40
3.5
  1
32.000 mm
  7
STANDARD
 72
1
 11
237.614
 21
407.095
 31
0
100
AcDbText
  0
SOLID
  5
270
330
120
100
AcDbEntity
  8
0
 62
     0
100
AcDbTrace
 10
208.499
 20
406.678
 30
0
 11
208.499
 21
407.512
 31
0
 12
203.499
 22
407.095
 32
0
 13
203.499
 23
407.095
 33
0
  0
SOLID
  5
271
330
120
100
AcDbEntity
  8
0
 62
     0
100
AcDbTrace
 10
262.499
 20
406.678
 30
0
 11
262.499
 21
407.512
 31
0
 12
267.499
 22
407.095
 32
0
 13
267.499
 23
407.095
 33
0
  0
ENDBLK
  5
272
330
120
100
AcDbEntity
  8
Dimension044
100
AcDbBlockEnd
  0
BLOCK
  5
273
330
121
100
AcDbEntity
  8
Dimension045
100
AcDbBlockBegin
  2
*Dimension045
 70
   1
 10
0
 20
0
 30
0
  3
*Dimension045
  1
 
  0
LINE
  5
274
330
121
100
AcDbEntity
  8
Dimension045
100
AcDbLine
 10
440.737
 20
481.838
 30
0
 11
455.369
 21
550.819
 31
0
  0
LINE
  5
275
330
121
100
AcDbEntity
  8
Dimension045
100
AcDbLine
 10
605.737
 20
446.838
 30
0
 11
620.369
 21
515.819
 31
0
  0
LINE
  5
276
330
121
100
AcDbEntity
  8
Dimension045
100
AcDbLine
 10
620.369
 20
515.819
 30
0
 11
455.369
 21
550.819
 31
0
  0
TEXT
  5
277
330
121
100
AcDbEntity
  8
Dimension045
100
AcDbText
 10
530.41
 20
530.231
 30
0
 40
3.5
  1
165.000 mm
  7
STANDARD
 72
1
 11
529.373
 21
535.122
 31
0
100
AcDbText
  0
SOLID
  5
278
330
121
100
AcDbEntity
  8
0
 62
     0
100
AcDbTrace
 10
615.392
 20
516.449
 30
0
 11
615.564
 21
517.265
 31
0
 12
620.369
 22
515.819
 32
0
 13
620.369
 23
515.819
 33
0
  0
SOLID
  5
279
330
121
100
AcDbEntity
  8
0
 62
     0
100
AcDbTrace
 10
460.174
 20
549.374
 30
0
 11
460.347
 21
550.19
 31
0
 12
455.369
 22
550.819
 32
0
 13
455.369
 23
550.819
 33
0
  0
ENDBLK
  5
27A
330
121
100
AcDbEntity
  8
Dimension045
100
AcDbBlockEnd
  0
BLOCK
  5
27B
330
122
100
AcDbEntity
  8
Dimension046
100
AcDbBlockBegin
  2
*Dimension046
 70
   1
 10
0
 20
0
 30
0
  3
*Dimension046
  1
 
  0
LINE
  5
27C
330
122
100
AcDbEntity
  8
Dimension046
100
AcDbLine
 10
605.737
 20
446.838
 30
0
 11
586.666
 21
423.389
 31
0
  0
LINE
  5
27D
330
122
100
AcDbEntity
  8
Dimension046
100
AcDbLine
 10
440.737
 20
481.838
 30
0
 11
421.666
 21
458.389
 31
0
  0
LINE
  5
27E
330
122
100
AcDbEntity
  8
Dimension046
100
AcDbLine
 10
421.666
 20
458.389
 30
0
 11
586.666
 21
423.389
 31
0
  0
TEXT
  5
27F
330
122
100
AcDbEntity
  8
Dimension046
100
AcDbText
 10
420.628
 20
463.28
 30
0
 40
3.5
  1
35.000 mm
  7
STANDARD
 72
1
 11
421.666
 21
458.389
 31
0
100
AcDbText
  0
SOLID
  5
280
330
122
100
AcDbEntity
  8
0
 62
     0
100
AcDbTrace
 10
426.82
 20
457.674
 30
0
 11
426.294
 21
457.028
 31
0
 12
421.666
 22
458.389
 32
0
 13
421.666
 23
458.389
 33
0
  0
SOLID
  5
281
330
122
100
AcDbEntity
  8
0
 62
     0
100
AcDbTrace
 10
582.037
 20
424.75
 30
0
 11
581.511
 21
424.103
 31
0
 12
586.666
 22
423.389
 32
0
 13
586.666
 23
423.389
 33
0
  0
ENDBLK
  5
282
330
122
100
AcDbEntity
  8
Dimension046
100
AcDbBlockEnd
  0
BLOCK
  5
283
330
123
100
AcDbEntity
  8
Dimension047
100
AcDbBlockBegin
  2
*Dimension047
 70
   1
 10
0
 20
0
 30
0
  3
*Dimension047
  1
 
  0
LINE
  5
284
330
123
100
AcDbEntity
  8
Dimension047
100
AcDbLine
 10
203.499
 20
380.713
 30
0
 11
168.708
 21
380.713
 31
0
  0
LINE
  5
285
330
123
100
AcDbEntity
  8
Dimension047
100
AcDbLine
 10
203.499
 20
418.713
 30
0
 11
168.708
 21
418.713
 31
0
  0
LINE
  5
286
330
123
100
AcDbEntity
  8
Dimension047
100
AcDbLine
 10
168.708
 20
418.713
 30
0
 11
168.708
 21
380.713
 31
0
  0
TEXT
  5
287
330
123
100
AcDbEntity
  8
Dimension047
100
AcDbText
 10
163.708
 20
400.121
 30
0
 40
3.5
  1
19.000 mm
  7
STANDARD
 72
1
 11
168.708
 21
400.121
 31
0
100
AcDbText
  0
SOLID
  5
288
330
123
100
AcDbEntity
  8
0
 62
     0
100
AcDbTrace
 10
169.125
 20
413.713
 30
0
 11
168.291
 21
413.713
 31
0
 12
168.708
 22
418.713
 32
0
 13
168.708
 23
418.713
 33
0
  0
SOLID
  5
289
330
123
100
AcDbEntity
  8
0
 62
     0
100
AcDbTrace
 10
169.125
 20
385.713
 30
0
 11
168.291
 21
385.713
 31
0
 12
168.708
 22
380.713
 32
0
 13
168.708
 23
380.713
 33
0
  0
ENDBLK
  5
28A
330
123
100
AcDbEntity
  8
Dimension047
100
AcDbBlockEnd
  0
BLOCK
  5
28B
330
124
100
AcDbEntity
  8
Dimension048
100
AcDbBlockBegin
  2
*Dimension048
 70
   1
 10
0
 20
0
 30
0
  3
*Dimension048
  1
 
  0
LINE
  5
28C
330
124
100
AcDbEntity
  8
Dimension048
100
AcDbLine
 10
440.737
 20
481.838
 30
0
 11
446.569
 21
527.578
 31
0
  0
LINE
  5
28D
330
124
100
AcDbEntity
  8
Dimension048
100
AcDbLine
 10
589.737
 20
462.838
 30
0
 11
595.569
 21
508.578
 31
0
  0
LINE
  5
28E
330
124
100
AcDbEntity
  8
Dimension048
100
AcDbLine
 10
595.569
 20
508.578
 30
0
 11
446.569
 21
527.578
 31
0
  0
TEXT
  5
28F
330
124
100
AcDbEntity
  8
Dimension048
100
AcDbText
 10
516.665
 20
513.761
 30
0
 40
3.5
  1
149.000 mm
  7
STANDARD
 72
1
 11
516.033
 21
518.721
 31
0
100
AcDbText
  0
SOLID
  5
290
330
124
100
AcDbEntity
  8
0
 62
     0
100
AcDbTrace
 10
590.557
 20
508.798
 30
0
 11
590.662
 21
509.624
 31
0
 12
595.569
 22
508.578
 32
0
 13
595.569
 23
508.578
 33
0
  0
SOLID
  5
291
330
124
100
AcDbEntity
  8
0
 62
     0
100
AcDbTrace
 10
451.477
 20
526.533
 30
0
 11
451.582
 21
527.359
 31
0
 12
446.569
 22
527.578
 32
0
 13
446.569
 23
527.578
 33
0
  0
ENDBLK
  5
292
330
124
100
AcDbEntity
  8
Dimension048
100
AcDbBlockEnd
  0
BLOCK
  5
293
330
125
100
AcDbEntity
  8
Dimension049
100
AcDbBlockBegin
  2
*Dimension049
 70
   1
 10
0
 20
0
 30
0
  3
*Dimension049
  1
 
  0
LINE
  5
294
330
125
100
AcDbEntity
  8
Dimension049
100
AcDbLine
 10
440.737
 20
481.838
 30
0
 11
448.589
 21
556.642
 31
0
  0
LINE
  5
295
330
125
100
AcDbEntity
  8
Dimension049
100
AcDbLine
 10
621.737
 20
462.838
 30
0
 11
629.589
 21
537.642
 31
0
  0
LINE
  5
296
330
125
100
AcDbEntity
  8
Dimension049
100
AcDbLine
 10
629.589
 20
537.642
 30
0
 11
448.589
 21
556.642
 31
0
  0
TEXT
  5
297
330
125
100
AcDbEntity
  8
Dimension049
100
AcDbText
 10
539.272
 20
542.205
 30
0
 40
3.5
  1
181.000 mm
  7
STANDARD
 72
1
 11
538.75
 21
547.177
 31
0
100
AcDbText
  0
SOLID
  5
298
330
125
100
AcDbEntity
  8
0
 62
     0
100
AcDbTrace
 10
624.573
 20
537.749
 30
0
 11
624.66
 21
538.578
 31
0
 12
629.589
 22
537.642
 32
0
 13
629.589
 23
537.642
 33
0
  0
SOLID
  5
299
330
125
100
AcDbEntity
  8
0
 62
     0
100
AcDbTrace
 10
453.518
 20
555.705
 30
0
 11
453.605
 21
556.534
 31
0
 12
448.589
 22
556.642
 32
0
 13
448.589
 23
556.642
 33
0
  0
ENDBLK
  5
29A
330
125
100
AcDbEntity
  8
Dimension049
100
AcDbBlockEnd
  0
ENDSEC
  0
SECTION
  2
ENTITIES
  0
LINE
  5
301
330
112
100
AcDbEntity
  8
ProjItem009
100
AcDbLine
 10
440.737
 20
481.838
 30
0
 11
770.737
 21
481.838
 31
0
  0
LINE
  5
302
330
112
100
AcDbEntity
  8
ProjItem009
100
AcDbLine
 10
770.737
 20
481.838
 30
0
 11
770.737
 21
131.838
 31
0
  0
LINE
  5
303
330
112
100
AcDbEntity
  8
ProjItem009
100
AcDbLine
 10
770.737
 20
131.838
 30
0
 11
440.737
 21
131.838
 31
0
  0
LINE
  5
304
330
112
100
AcDbEntity
  8
ProjItem009
100
AcDbLine
 10
440.737
 20
131.838
 30
0
 11
440.737
 21
481.838
 31
0
  0
CIRCLE
  5
305
330
112
100
AcDbEntity
  8
ProjItem009
100
AcDbCircle
 10
605.737
 20
446.838
 40
19.5
  0
CIRCLE
  5
306
330
112
100
AcDbEntity
  8
ProjItem009
100
AcDbCircle
 10
621.737
 20
430.838
 40
1.75
  0
CIRCLE
  5
307
330
112
100
AcDbEntity
  8
ProjItem009
100
AcDbCircle
 10
621.737
 20
462.838
 40
1.75
  0
CIRCLE
  5
308
330
112
100
AcDbEntity
  8
ProjItem009
100
AcDbCircle
 10
589.737
 20
430.838
 40
1.75
  0
CIRCLE
  5
309
330
112
100
AcDbEntity
  8
ProjItem009
100
AcDbCircle
 10
589.737
 20
462.838
 40
1.75
  0
LINE
  5
30A
330
112
100
AcDbEntity
  8
ProjItem010
100
AcDbLine
 10
770.737
 20
670.588
 30
0
 11
770.737
 21
673.088
 31
0
  0
LINE
  5
30B
330
112
100
AcDbEntity
  8
ProjItem010
100
AcDbLine
 10
440.737
 20
670.588
 30
0
 11
440.737
 21
673.088
 31
0
  0
LINE
  5
30C
330
112
100
AcDbEntity
  8
ProjItem010
100
AcDbLine
 10
770.737
 20
670.588
 30
0
 11
440.737
 21
670.588
 31
0
  0
LINE
  5
30D
330
112
100
AcDbEntity
  8
ProjItem010
100
AcDbLine
 10
770.737
 20
673.088
 30
0
 11
440.737
 21
673.088
 31
0
  0
LINE
  5
30E
330
112
100
AcDbEntity
  8
ProjItem011
100
AcDbLine
 10
949.487
 20
481.838
 30
0
 11
951.987
 21
481.838
 31
0
  0
LINE
  5
30F
330
112
100
AcDbEntity
  8
ProjItem011
100
AcDbLine
 10
949.487
 20
131.838
 30
0
 11
951.987
 21
131.838
 31
0
  0
LINE
  5
310
330
112
100
AcDbEntity
  8
ProjItem011
100
AcDbLine
 10
949.487
 20
131.838
 30
0
 11
949.487
 21
481.838
 31
0
  0
LINE
  5
311
330
112
100
AcDbEntity
  8
ProjItem011
100
AcDbLine
 10
951.987
 20
131.838
 30
0
 11
951.987
 21
481.838
 31
0
  0
LINE
  5
312
330
112
100
AcDbEntity
  8
View017
100
AcDbLine
 10
996.032
 20
777.699
 30
0
 11
995.148
 21
777.188
 31
0
  0
LINE
  5
313
330
112
100
AcDbEntity
  8
View017
100
AcDbLine
 10
1112.7
 20
710.338
 30
0
 11
1111.82
 21
709.827
 31
0
  0
LINE
  5
314
330
112
100
AcDbEntity
  8
View017
100
AcDbLine
 10
996.032
 20
777.699
 30
0
 11
1112.7
 21
710.338
 31
0
  0
LINE
  5
315
330
112
100
AcDbEntity
  8
View017
100
AcDbLine
 10
995.148
 20
777.188
 30
0
 11
1111.82
 21
709.827
 31
0
  0
LINE
  5
316
330
112
100
AcDbEntity
  8
View017
100
AcDbLine
 10
1112.7
 20
567.451
 30
0
 11
1111.82
 21
566.94
 31
0
  0
LINE
  5
317
330
112
100
AcDbEntity
  8
View017
100
AcDbLine
 10
1112.7
 20
710.338
 30
0
 11
1112.7
 21
567.451
 31
0
  0
LINE
  5
318
330
112
100
AcDbEntity
  8
View017
100
AcDbLine
 10
1111.82
 20
709.827
 30
0
 11
1111.82
 21
566.94
 31
0
  0
LINE
  5
319
330
112
100
AcDbEntity
  8
View017
100
AcDbLine
 10
1111.82
 20
566.94
 30
0
 11
995.148
 21
634.301
 31
0
  0
LINE
  5
31A
330
112
100
AcDbEntity
  8
View017
100
AcDbLine
 10
995.148
 20
634.301
 30
0
 11
995.148
 21
777.188
 31
0
  0
ELLIPSE
  5
31B
330
112
100
AcDbEntity
  8
View017
100
AcDbEllipse
 10
1054.37
 20
729.729
 30
0
 11
-4.875
 21
8.44375
 31
0
 40
0.57735
 41
0.0907793
 42
3.05081
  0
ELLIPSE
  5
31C
330
112
100
AcDbEntity
  8
View017
100
AcDbEllipse
 10
1053.48
 20
729.219
 30
0
 11
-4.875
 21
8.44375
 31
0
 40
0.57735
 41
3.92699
 42
0
  0
ELLIPSE
  5
31D
330
112
100
AcDbEntity
  8
View017
100
AcDbEllipse
 10
1053.48
 20
729.219
 30
0
 11
-4.875
 21
8.44375
 31
0
 40
0.57735
 41
0
 42
3.14159
  0
ELLIPSE
  5
31E
330
112
100
AcDbEntity
  8
View017
100
AcDbEllipse
 10
1053.48
 20
729.219
 30
0
 11
-4.875
 21
8.44375
 31
0
 40
0.57735
 41
3.14159
 42
3.92699
  0
ELLIPSE
  5
31F
330
112
100
AcDbEntity
  8
View017
100
AcDbEllipse
 10
1059.14
 20
719.421
 30
0
 11
-0.4375
 21
0.757772
 31
0
 40
0.57735
 41
3.92699
 42
0
  0
ELLIPSE
  5
320
330
112
100
AcDbEntity
  8
View017
100
AcDbEllipse
 10
1059.14
 20
719.421
 30
0
 11
-0.4375
 21
0.757772
 31
0
 40
0.57735
 41
0
 42
3.14159
  0
ELLIPSE
  5
321
330
112
100
AcDbEntity
  8
View017
100
AcDbEllipse
 10
1059.14
 20
719.421
 30
0
 11
-0.4375
 21
0.757772
 31
0
 40
0.57735
 41
3.14159
 42
3.92699
  0
ELLIPSE
  5
322
330
112
100
AcDbEntity
  8
View017
100
AcDbEllipse
 10
1059.14
 20
732.485
 30
0
 11
-0.4375
 21
0.757772
 31
0
 40
0.57735
 41
3.92699
 42
0
  0
ELLIPSE
  5
323
330
112
100
AcDbEntity
  8
View017
100
AcDbEllipse
 10
1059.14
 20
732.485
 30
0
 11
-0.4375
 21
0.757772
 31
0
 40
0.57735
 41
0
 42
3.14159
  0
ELLIPSE
  5
324
330
112
100
AcDbEntity
  8
View017
100
AcDbEllipse
 10
1059.14
 20
732.485
 30
0
 11
-0.4375
 21
0.757772
 31
0
 40
0.57735
 41
3.14159
 42
3.92699
  0
ELLIPSE
  5
325
330
112
100
AcDbEntity
  8
View017
100
AcDbEllipse
 10
1047.83
 20
725.953
 30
0
 11
-0.4375
 21
0.757772
 31
0
 40
0.57735
 41
3.92699
 42
0
  0
ELLIPSE
  5
326
330
112
100
AcDbEntity
  8
View017
100
AcDbEllipse
 10
1047.83
 20
725.953
 30
0
 11
-0.4375
 21
0.757772
 31
0
 40
0.57735
 41
0
 42
3.14159
  0
ELLIPSE
  5
327
330
112
100
AcDbEntity
  8
View017
100
AcDbEllipse
 10
1047.83
 20
725.953
 30
0
 11
-0.4375
 21
0.757772
 31
0
 40
0.57735
 41
3.14159
 42
3.92699
  0
ELLIPSE
  5
328
330
112
100
AcDbEntity
  8
View017
100
AcDbEllipse
 10
1047.83
 20
739.017
 30
0
 11
-0.4375
 21
0.757772
 31
0
 40
0.57735
 41
3.92699
 42
0
  0
ELLIPSE
  5
329
330
112
100
AcDbEntity
  8
View017
100
AcDbEllipse
 10
1047.83
 20
739.017
 30
0
 11
-0.4375
 21
0.757772
 31
0
 40
0.57735
 41
0
 42
3.14159
  0
ELLIPSE
  5
32A
330
112
100
AcDbEntity
  8
View017
100
AcDbEllipse
 10
1047.83
 20
739.017
 30
0
 11
-0.4375
 21
0.757772
 31
0
 40
0.57735
 41
3.14159
 42
3.92699
  0
DIMENSION
  5
32B
330
112
100
AcDbEntity
  8
Dimension011
100
AcDbDimension
  2
*Dimension011
 10
810.178
 20
310.057
 30
0
 11
805.178
 21
310.057
 31
0
 70
1
  1
350.000 mm
  3
STANDARD
100
AcDbAlignedDimension
 13
770.737
 23
481.838
 33
0
 14
770.737
 24
131.838
 34
0
  0
DIMENSION
  5
32C
330
112
100
AcDbEntity
  8
Dimension012
100
AcDbDimension
  2
*Dimension012
 10
604.865
 20
560.243
 30
0
 11
604.865
 21
565.243
 31
0
 70
1
  1
330.000 mm
  3
STANDARD
100
AcDbAlignedDimension
 13
440.737
 23
481.838
 33
0
 14
770.737
 24
481.838
 34
0
  0
LINE
  5
32D
330
112
100
AcDbEntity
  8
Detail
100
AcDbLine
 10
114.299
 20
418.713
 30
0
 11
356.699
 21
418.713
 31
0
  0
LINE
  5
32E
330
112
100
AcDbEntity
  8
Detail
100
AcDbLine
 10
356.699
 20
227.513
 30
0
 11
356.699
 21
418.713
 31
0
  0
LINE
  5
32F
330
112
100
AcDbEntity
  8
Detail
100
AcDbLine
 10
114.299
 20
227.513
 30
0
 11
114.299
 21
418.713
 31
0
  0
LINE
  5
330
330
112
100
AcDbEntity
  8
Detail
100
AcDbLine
 10
356.699
 20
227.513
 30
0
 11
114.299
 21
227.513
 31
0
  0
CIRCLE
  5
331
330
112
100
AcDbEntity
  8
Detail
100
AcDbCircle
 10
267.499
 20
380.713
 40
3.5
  0
CIRCLE
  5
332
330
112
100
AcDbEntity
  8
Detail
100
AcDbCircle
 10
235.499
 20
348.713
 40
39
  0
CIRCLE
  5
333
330
112
100
AcDbEntity
  8
Detail
100
AcDbCircle
 10
203.499
 20
380.713
 40
3.5
  0
CIRCLE
  5
334
330
112
100
AcDbEntity
  8
Detail
100
AcDbCircle
 10
203.499
 20
316.713
 40
3.5
  0
CIRCLE
  5
335
330
112
100
AcDbEntity
  8
Detail
100
AcDbCircle
 10
267.499
 20
316.713
 40
3.5
  0
DIMENSION
  5
336
330
112
100
AcDbEntity
  8
Dimension013
100
AcDbDimension
  2
*Dimension013
 10
274.499
 20
348.713
 30
0
 11
249.301
 21
335.032
 31
0
 70
3
  1
⌀39.000 mm
  3
STANDARD
100
AcDbDiametricDimension
 15
196.499
 25
348.713
 35
0
 40
0
  0
DIMENSION
  5
337
330
112
100
AcDbEntity
  8
Dimension014
100
AcDbDimension
  2
*Dimension014
 10
206.999
 20
316.713
 30
0
 11
242.399
 21
292.08
 31
0
 70
3
  1
⌀3.500 mm
  3
STANDARD
100
AcDbDiametricDimension
 15
199.999
 25
316.713
 35
0
 40
0
  0
DIMENSION
  5
338
330
112
100
AcDbEntity
  8
Dimension015
100
AcDbDimension
  2
*Dimension015
 10
270.999
 20
316.713
 30
0
 11
242.776
 21
300.606
 31
0
 70
3
  1
⌀3.500 mm
  3
STANDARD
100
AcDbDiametricDimension
 15
263.999
 25
316.713
 35
0
 40
0
  0
DIMENSION
  5
339
330
112
100
AcDbEntity
  8
Dimension016
100
AcDbDimension
  2
*Dimension016
 10
206.999
 20
380.713
 30
0
 11
238.32
 21
393.847
 31
0
 70
3
  1
⌀3.500 mm
  3
STANDARD
100
AcDbDiametricDimension
 15
199.999
 25
380.713
 35
0
 40
0
  0
DIMENSION
  5
33A
330
112
100
AcDbEntity
  8
Dimension017
100
AcDbDimension
  2
*Dimension017
 10
270.999
 20
380.713
 30
0
 11
237.262
 21
402.309
 31
0
 70
3
  1
⌀3.500 mm
  3
STANDARD
100
AcDbDiametricDimension
 15
263.999
 25
380.713
 35
0
 40
0
  0
DIMENSION
  5
33B
330
112
100
AcDbEntity
  8
Dimension022
100
AcDbDimension
  2
*Dimension022
 10
924.096
 20
496.96
 30
0
 11
924.096
 21
501.96
 31
0
 70
1
  1
2.500 mm
  3
STANDARD
100
AcDbAlignedDimension
 13
949.487
 23
481.838
 33
0
 14
951.987
 24
481.838
 34
0
  0
DIMENSION
  5
33C
330
112
100
AcDbEntity
  8
Dimension023
100
AcDbDimension
  2
*Dimension023
 10
968.922
 20
313.54
 30
0
 11
973.922
 21
313.54
 31
0
 70
1
  1
350.000 mm
  3
STANDARD
100
AcDbAlignedDimension
 13
951.987
 23
131.838
 33
0
 14
951.987
 24
481.838
 34
0
  0
DIMENSION
  5
33D
330
112
100
AcDbEntity
  8
Dimension040
100
AcDbDimension
  2
*Dimension040
 10
594.571
 20
698.363
 30
0
 11
594.571
 21
693.363
 31
0
 70
1
  1
330.000 mm
  3
STANDARD
100
AcDbAlignedDimension
 13
770.737
 23
673.088
 33
0
 14
440.737
 24
673.088
 34
0
  0
DIMENSION
  5
33E
330
112
100
AcDbEntity
  8
Dimension041
100
AcDbDimension
  2
*Dimension041
 10
784.846
 20
650.094
 30
0
 11
779.846
 21
650.094
 31
0
 70
1
  1
2.500 mm
  3
STANDARD
100
AcDbAlignedDimension
 13
770.737
 23
673.088
 33
0
 14
770.737
 24
670.588
 34
0
  0
DIMENSION
  5
33F
330
112
100
AcDbEntity
  8
Dimension043
100
AcDbDimension
  2
*Dimension043
 10
293.229
 20
350.724
 30
0
 11
288.229
 21
350.724
 31
0
 70
1
  1
32.000 mm
  3
STANDARD
100
AcDbAlignedDimension
 13
270.999
 23
380.713
 33
0
 14
270.999
 24
316.713
 34
0
  0
DIMENSION
  5
340
330
112
100
AcDbEntity
  8
Dimension044
100
AcDbDimension
  2
*Dimension044
 10
237.614
 20
407.095
 30
0
 11
237.614
 21
412.095
 31
0
 70
1
  1
32.000 mm
  3
STANDARD
100
AcDbAlignedDimension
 13
203.499
 23
380.713
 33
0
 14
267.499
 24
380.713
 34
0
  0
DIMENSION
  5
341
330
112
100
AcDbEntity
  8
Dimension045
100
AcDbDimension
  2
*Dimension045
 10
529.373
 20
535.122
 30
0
 11
530.41
 21
530.231
 31
0
 70
1
  1
165.000 mm
  3
STANDARD
100
AcDbAlignedDimension
 13
605.737
 23
446.838
 33
0
 14
440.737
 24
481.838
 34
0
  0
DIMENSION
  5
342
330
112
100
AcDbEntity
  8
Dimension046
100
AcDbDimension
  2
*Dimension046
 10
421.666
 20
458.389
 30
0
 11
420.628
 21
463.28
 31
0
 70
1
  1
35.000 mm
  3
STANDARD
100
AcDbAlignedDimension
 13
440.737
 23
481.838
 33
0
 14
605.737
 24
446.838
 34
0
  0
DIMENSION
  5
343
330
112
100
AcDbEntity
  8
Dimension047
100
AcDbDimension
  2
*Dimension047
 10
168.708
 20
400.121
 30
0
 11
163.708
 21
400.121
 31
0
 70
1
  1
19.000 mm
  3
STANDARD
100
AcDbAlignedDimension
 13
203.499
 23
418.713
 33
0
 14
203.499
 24
380.713
 34
0
  0
DIMENSION
  5
344
330
112
100
AcDbEntity
  8
Dimension048
100
AcDbDimension
  2
*Dimension048
 10
516.033
 20
518.721
 30
0
 11
516.665
 21
513.761
 31
0
 70
1
  1
149.000 mm
  3
STANDARD
100
AcDbAlignedDimension
 13
589.737
 23
462.838
 33
0
 14
440.737
 24
481.838
 34
0
  0
DIMENSION
  5
345
330
112
100
AcDbEntity
  8
Dimension049
100
AcDbDimension
  2
*Dimension049
 10
538.75
 20
547.177
 30
0
 11
539.272
 21
542.205
 31
0
 70
1
  1
181.000 mm
  3
STANDARD
100
AcDbAlignedDimension
 13
621.737
 23
462.838
 33
0
 14
440.737
 24
481.838
 34
0
  0
ENDSEC
  0
SECTION
  2
OBJECTS
  0
DICTIONARY
  5
500
330
0
100
AcDbDictionary
  3
ACAD_GROUP
350
501
  0
DICTIONARY
  5
501
330
500
100
AcDbDictionary
  0
ENDSEC
  0
EOF