999
FreeCAD v0.18.4 
  0
SECTION
  2
HEADER
  9
$ACADVER
  1
AC1014
  9
$ACADMAINTVER
 70
     9
  9
$DWGCODEPAGE
  3
ANSI_1252
  9
$TEXTSTYLE
  7
STANDARD
  9
$DIMSTYLE
  2
STANDARD
  9
$DIMTXSTY
  7
STANDARD
  9
$CMLSTYLE
  2
STANDARD
  9
$HANDSEED
  5
FFF
  0
ENDSEC
  0
SECTION
  2
CLASSES
  0
CLASS
  1
ACDBDICTIONARYWDFLT
  2
AcDbDictionaryWithDefault
  3
ObjectDBX Classes
 90
        0
280
     0
281
     0
  0
CLASS
  1
XRECORD
  2
AcDbXrecord
  3
ObjectDBX Classes
 90
        0
280
     0
281
     0
  0
CLASS
  1
LWPOLYLINE
  2
AcDbPolyline
  3
ObjectDBX Classes
 90
        0
280
     0
281
     1
  0
ENDSEC
  0
SECTION
  2
TABLES
  0
TABLE
  2
VPORT
  5
20
330
0
100
AcDbSymbolTable
 70
     1
  0
VPORT
  5
21
330
20
100
AcDbSymbolTableRecord
100
AcDbViewportTableRecord
  2
*ACTIVE
 70
     0
  0
ENDTAB
  0
TABLE
  2
LTYPE
  5
22
330
0
100
AcDbSymbolTable
 70
     1
  0
LTYPE
  5
23
330
21
100
AcDbSymbolTableRecord
100
AcDbLinetypeTableRecord
  2
BYBLOCK
 70
     0
  3

 72
    65
 73
     0
 40
0.0
  0
LTYPE
  5
24
330
21
100
AcDbSymbolTableRecord
100
AcDbLinetypeTableRecord
  2
BYLAYER
 70
     0
  3

 72
    65
 73
     0
 40
0.0
  0
LTYPE
  5
25
330
21
100
AcDbSymbolTableRecord
100
AcDbLinetypeTableRecord
  2
CONTINUOUS
 70
     0
  3
Solid line
 72
    65
 73
     0
 40
0.0
  0
ENDTAB
  0
TABLE
  2
LAYER
  5
31
330
0
100
AcDbSymbolTable
 70
16
  0
LAYER
  5
32
330
31
100
AcDbSymbolTableRecord
100
AcDbLayerTableRecord
  2
0
 70
   0
 62
   7
  6
CONTINUOUS
  0
LAYER
  5
33
330
31
100
AcDbSymbolTableRecord
100
AcDbLayerTableRecord
  2
ProjItem012
 70
    0
 62
    7
  6
CONTINUOUS
  0
LAYER
  5
34
330
31
100
AcDbSymbolTableRecord
100
AcDbLayerTableRecord
  2
ProjItem013
 70
    0
 62
    7
  6
CONTINUOUS
  0
LAYER
  5
35
330
31
100
AcDbSymbolTableRecord
100
AcDbLayerTableRecord
  2
ProjItem014
 70
    0
 62
    7
  6
CONTINUOUS
  0
LAYER
  5
36
330
31
100
AcDbSymbolTableRecord
100
AcDbLayerTableRecord
  2
Dimension
 70
    0
 62
    7
  6
CONTINUOUS
  0
LAYER
  5
37
330
31
100
AcDbSymbolTableRecord
100
AcDbLayerTableRecord
  2
Dimension024
 70
    0
 62
    7
  6
CONTINUOUS
  0
LAYER
  5
38
330
31
100
AcDbSymbolTableRecord
100
AcDbLayerTableRecord
  2
Dimension025
 70
    0
 62
    7
  6
CONTINUOUS
  0
LAYER
  5
39
330
31
100
AcDbSymbolTableRecord
100
AcDbLayerTableRecord
  2
Dimension026
 70
    0
 62
    7
  6
CONTINUOUS
  0
LAYER
  5
3A
330
31
100
AcDbSymbolTableRecord
100
AcDbLayerTableRecord
  2
Dimension027
 70
    0
 62
    7
  6
CONTINUOUS
  0
LAYER
  5
3B
330
31
100
AcDbSymbolTableRecord
100
AcDbLayerTableRecord
  2
Dimension028
 70
    0
 62
    7
  6
CONTINUOUS
  0
LAYER
  5
3C
330
31
100
AcDbSymbolTableRecord
100
AcDbLayerTableRecord
  2
Dimension029
 70
    0
 62
    7
  6
CONTINUOUS
  0
LAYER
  5
3D
330
31
100
AcDbSymbolTableRecord
100
AcDbLayerTableRecord
  2
Dimension030
 70
    0
 62
    7
  6
CONTINUOUS
  0
LAYER
  5
3E
330
31
100
AcDbSymbolTableRecord
100
AcDbLayerTableRecord
  2
Dimension031
 70
    0
 62
    7
  6
CONTINUOUS
  0
LAYER
  5
3F
330
31
100
AcDbSymbolTableRecord
100
AcDbLayerTableRecord
  2
View018
 70
    0
 62
    7
  6
CONTINUOUS
  0
LAYER
  5
40
330
31
100
AcDbSymbolTableRecord
100
AcDbLayerTableRecord
  2
Dimension038
 70
    0
 62
    7
  6
CONTINUOUS
  0
LAYER
  5
41
330
31
100
AcDbSymbolTableRecord
100
AcDbLayerTableRecord
  2
Dimension039
 70
    0
 62
    7
  6
CONTINUOUS
  0
ENDTAB
  0
TABLE
  2
STYLE
  5
60
330
0
100
AcDbSymbolTable
 70
     2
  0
STYLE
  5
61
330
60
100
AcDbSymbolTableRecord
100
AcDbTextStyleTableRecord
  2
STANDARD
 70
     0
 40
0.0
 41
1.0
 50
0.0
 71
     0
 42
2.5
  3
arial.ttf
  4

  0
STYLE
  5
62
330
60
100
AcDbSymbolTableRecord
100
AcDbTextStyleTableRecord
  2
ANNOTATIVE
 70
     0
 40
0.0
 41
1.0
 50
0.0
 71
     0
 42
2.5
  3
arial.ttf
  4

  0
ENDTAB
  0
TABLE
  2
VIEW
  5
63
330
0
100
AcDbSymbolTable
 70
     0
  0
ENDTAB
  0
TABLE
  2
UCS
  5
64
330
0
100
AcDbSymbolTable
 70
     0
  0
ENDTAB
  0
TABLE
  2
APPID
  5
65
330
0
100
AcDbSymbolTable
 70
     2
  0
APPID
  5
66
330
65
100
AcDbSymbolTableRecord
100
AcDbRegAppTableRecord
  2
ACAD
 70
     0
  0
APPID
  5
67
330
65
100
AcDbSymbolTableRecord
100
AcDbRegAppTableRecord
  2
ACADANNOTATIVE
 70
     0
  0
ENDTAB
  0
TABLE
  2
DIMSTYLE
  5
68
330
0
100
AcDbSymbolTable
 70
     2
  0
DIMSTYLE
105
69
330
68
100
AcDbSymbolTableRecord
100
AcDbDimStyleTableRecord
  2
STANDARD
 70
     0
  3

  4

  5

  6

  7

 40
0.0
 41
2.5
 42
0.625
 43
3.75
 44
1.25
 45
0.0
 46
0.0
 47
0.0
 48
0.0
140
2.5
141
2.5
142
0.0
143
0.03937007874016
144
1.0
145
0.0
146
1.0
147
0.625
 71
     0
 72
     0
 73
     0
 74
     0
 75
     0
 76
     0
 77
     1
 78
     8
170
     0
171
     3
172
     1
173
     0
174
     0
175
     0
176
     0
177
     0
178
     0
270
     2
271
     2
272
     2
273
     2
274
     3
340
61
275
     0
280
     0
281
     0
282
     0
283
     0
284
     8
285
     0
286
     0
287
     3
288
     0
  0
ENDTAB
  0
TABLE
  2
BLOCK_RECORD
  5
111
330
0
100
AcDbSymbolTable
  70
5
  0
BLOCK_RECORD
  5
112
330
111
100
AcDbSymbolTableRecord
100
AcDbBlockTableRecord
  2
*MODEL_SPACE
  0
BLOCK_RECORD
  5
113
330
111
100
AcDbSymbolTableRecord
100
AcDbBlockTableRecord
  2
*PAPER_SPACE
  0
BLOCK_RECORD
  5
114
330
111
100
AcDbSymbolTableRecord
100
AcDbBlockTableRecord
  2
*Dimension
  0
BLOCK_RECORD
  5
115
330
111
100
AcDbSymbolTableRecord
100
AcDbBlockTableRecord
  2
*Dimension024
  0
BLOCK_RECORD
  5
116
330
111
100
AcDbSymbolTableRecord
100
AcDbBlockTableRecord
  2
*Dimension025
  0
BLOCK_RECORD
  5
117
330
111
100
AcDbSymbolTableRecord
100
AcDbBlockTableRecord
  2
*Dimension026
  0
BLOCK_RECORD
  5
118
330
111
100
AcDbSymbolTableRecord
100
AcDbBlockTableRecord
  2
*Dimension027
  0
BLOCK_RECORD
  5
119
330
111
100
AcDbSymbolTableRecord
100
AcDbBlockTableRecord
  2
*Dimension028
  0
BLOCK_RECORD
  5
11A
330
111
100
AcDbSymbolTableRecord
100
AcDbBlockTableRecord
  2
*Dimension029
  0
BLOCK_RECORD
  5
11B
330
111
100
AcDbSymbolTableRecord
100
AcDbBlockTableRecord
  2
*Dimension030
  0
BLOCK_RECORD
  5
11C
330
111
100
AcDbSymbolTableRecord
100
AcDbBlockTableRecord
  2
*Dimension031
  0
BLOCK_RECORD
  5
11D
330
111
100
AcDbSymbolTableRecord
100
AcDbBlockTableRecord
  2
*Dimension038
  0
BLOCK_RECORD
  5
11E
330
111
100
AcDbSymbolTableRecord
100
AcDbBlockTableRecord
  2
*Dimension039
  0
ENDTAB
  0
ENDSEC
  0
SECTION
  2
BLOCKS
  0
BLOCK
  5
211
330
112
100
AcDbEntity
  8
0
100
AcDbBlockBegin
  2
*MODEL_SPACE
 70
   0
 10
0
 20
0
 30
0
  3
*MODEL_SPACE
  1
 
  0
ENDBLK
  5
212
330
112
100
AcDbEntity
  8
0
100
AcDbBlockEnd
  0
BLOCK
  5
213
330
113
100
AcDbEntity
 67
1
  8
0
100
AcDbBlockBegin
  2
*PAPER_SPACE
 70
   0
 10
0
 20
0
 30
0
  3
*PAPER_SPACE
  1
 
  0
ENDBLK
  5
214
330
113
100
AcDbEntity
 67
    1
  8
0
100
AcDbBlockEnd
  0
BLOCK
  5
215
330
114
100
AcDbEntity
  8
Dimension
100
AcDbBlockBegin
  2
*Dimension
 70
   1
 10
0
 20
0
 30
0
  3
*Dimension
  1
 
  0
LINE
  5
216
330
114
100
AcDbEntity
  8
Dimension
100
AcDbLine
 10
280.012
 20
523.026
 30
0
 11
280.012
 21
530.901
 31
0
  0
LINE
  5
217
330
114
100
AcDbEntity
  8
Dimension
100
AcDbLine
 10
120.012
 20
523.026
 30
0
 11
120.012
 21
530.901
 31
0
  0
LINE
  5
218
330
114
100
AcDbEntity
  8
Dimension
100
AcDbLine
 10
120.012
 20
530.901
 30
0
 11
280.012
 21
530.901
 31
0
  0
TEXT
  5
219
330
114
100
AcDbEntity
  8
Dimension
100
AcDbText
 10
205.806
 20
535.901
 30
0
 40
3.5
  1
160.000 mm
  7
STANDARD
 72
1
 11
205.806
 21
530.901
 31
0
100
AcDbText
  0
SOLID
  5
21A
330
114
100
AcDbEntity
  8
0
 62
     0
100
AcDbTrace
 10
125.012
 20
530.484
 30
0
 11
125.012
 21
531.318
 31
0
 12
120.012
 22
530.901
 32
0
 13
120.012
 23
530.901
 33
0
  0
SOLID
  5
21B
330
114
100
AcDbEntity
  8
0
 62
     0
100
AcDbTrace
 10
275.012
 20
530.484
 30
0
 11
275.012
 21
531.318
 31
0
 12
280.012
 22
530.901
 32
0
 13
280.012
 23
530.901
 33
0
  0
ENDBLK
  5
21C
330
114
100
AcDbEntity
  8
Dimension
100
AcDbBlockEnd
  0
BLOCK
  5
21D
330
115
100
AcDbEntity
  8
Dimension024
100
AcDbBlockBegin
  2
*Dimension024
 70
   1
 10
0
 20
0
 30
0
  3
*Dimension024
  1
 
  0
LINE
  5
21E
330
115
100
AcDbEntity
  8
Dimension024
100
AcDbLine
 10
450.012
 20
523.026
 30
0
 11
450.012
 21
532.189
 31
0
  0
LINE
  5
21F
330
115
100
AcDbEntity
  8
Dimension024
100
AcDbLine
 10
290.012
 20
523.026
 30
0
 11
290.012
 21
532.189
 31
0
  0
LINE
  5
220
330
115
100
AcDbEntity
  8
Dimension024
100
AcDbLine
 10
290.012
 20
532.189
 30
0
 11
450.012
 21
532.189
 31
0
  0
TEXT
  5
221
330
115
100
AcDbEntity
  8
Dimension024
100
AcDbText
 10
370.012
 20
537.189
 30
0
 40
3.5
  1
160.000 mm
  7
STANDARD
 72
1
 11
370.012
 21
532.189
 31
0
100
AcDbText
  0
SOLID
  5
222
330
115
100
AcDbEntity
  8
0
 62
     0
100
AcDbTrace
 10
295.012
 20
531.772
 30
0
 11
295.012
 21
532.605
 31
0
 12
290.012
 22
532.189
 32
0
 13
290.012
 23
532.189
 33
0
  0
SOLID
  5
223
330
115
100
AcDbEntity
  8
0
 62
     0
100
AcDbTrace
 10
445.012
 20
531.772
 30
0
 11
445.012
 21
532.605
 31
0
 12
450.012
 22
532.189
 32
0
 13
450.012
 23
532.189
 33
0
  0
ENDBLK
  5
224
330
115
100
AcDbEntity
  8
Dimension024
100
AcDbBlockEnd
  0
BLOCK
  5
225
330
116
100
AcDbEntity
  8
Dimension025
100
AcDbBlockBegin
  2
*Dimension025
 70
   1
 10
0
 20
0
 30
0
  3
*Dimension025
  1
 
  0
LINE
  5
226
330
116
100
AcDbEntity
  8
Dimension025
100
AcDbLine
 10
450.012
 20
523.026
 30
0
 11
450.012
 21
578.54
 31
0
  0
LINE
  5
227
330
116
100
AcDbEntity
  8
Dimension025
100
AcDbLine
 10
120.012
 20
523.026
 30
0
 11
120.012
 21
578.54
 31
0
  0
LINE
  5
228
330
116
100
AcDbEntity
  8
Dimension025
100
AcDbLine
 10
120.012
 20
578.54
 30
0
 11
450.012
 21
578.54
 31
0
  0
TEXT
  5
229
330
116
100
AcDbEntity
  8
Dimension025
100
AcDbText
 10
292.737
 20
583.54
 30
0
 40
3.5
  1
330.000 mm
  7
STANDARD
 72
1
 11
292.737
 21
578.54
 31
0
100
AcDbText
  0
SOLID
  5
22A
330
116
100
AcDbEntity
  8
0
 62
     0
100
AcDbTrace
 10
125.012
 20
578.123
 30
0
 11
125.012
 21
578.957
 31
0
 12
120.012
 22
578.54
 32
0
 13
120.012
 23
578.54
 33
0
  0
SOLID
  5
22B
330
116
100
AcDbEntity
  8
0
 62
     0
100
AcDbTrace
 10
445.012
 20
578.123
 30
0
 11
445.012
 21
578.957
 31
0
 12
450.012
 22
578.54
 32
0
 13
450.012
 23
578.54
 33
0
  0
ENDBLK
  5
22C
330
116
100
AcDbEntity
  8
Dimension025
100
AcDbBlockEnd
  0
BLOCK
  5
22D
330
117
100
AcDbEntity
  8
Dimension026
100
AcDbBlockBegin
  2
*Dimension026
 70
   1
 10
0
 20
0
 30
0
  3
*Dimension026
  1
 
  0
LINE
  5
22E
330
117
100
AcDbEntity
  8
Dimension026
100
AcDbLine
 10
280.012
 20
523.026
 30
0
 11
280.012
 21
557.639
 31
0
  0
LINE
  5
22F
330
117
100
AcDbEntity
  8
Dimension026
100
AcDbLine
 10
290.012
 20
523.026
 30
0
 11
290.012
 21
557.639
 31
0
  0
LINE
  5
230
330
117
100
AcDbEntity
  8
Dimension026
100
AcDbLine
 10
290.012
 20
557.639
 30
0
 11
280.012
 21
557.639
 31
0
  0
TEXT
  5
231
330
117
100
AcDbEntity
  8
Dimension026
100
AcDbText
 10
286.3
 20
552.639
 30
0
 40
3.5
  1
10.000 mm
  7
STANDARD
 72
1
 11
286.3
 21
557.639
 31
0
100
AcDbText
  0
SOLID
  5
232
330
117
100
AcDbEntity
  8
0
 62
     0
100
AcDbTrace
 10
285.012
 20
557.222
 30
0
 11
285.012
 21
558.056
 31
0
 12
290.012
 22
557.639
 32
0
 13
290.012
 23
557.639
 33
0
  0
SOLID
  5
233
330
117
100
AcDbEntity
  8
0
 62
     0
100
AcDbTrace
 10
285.012
 20
557.222
 30
0
 11
285.012
 21
558.056
 31
0
 12
280.012
 22
557.639
 32
0
 13
280.012
 23
557.639
 33
0
  0
ENDBLK
  5
234
330
117
100
AcDbEntity
  8
Dimension026
100
AcDbBlockEnd
  0
BLOCK
  5
235
330
118
100
AcDbEntity
  8
Dimension027
100
AcDbBlockBegin
  2
*Dimension027
 70
   1
 10
0
 20
0
 30
0
  3
*Dimension027
  1
 
  0
LINE
  5
236
330
118
100
AcDbEntity
  8
Dimension027
100
AcDbLine
 10
290.012
 20
463.026
 30
0
 11
310.462
 21
463.026
 31
0
  0
LINE
  5
237
330
118
100
AcDbEntity
  8
Dimension027
100
AcDbLine
 10
290.012
 20
523.026
 30
0
 11
310.462
 21
523.026
 31
0
  0
LINE
  5
238
330
118
100
AcDbEntity
  8
Dimension027
100
AcDbLine
 10
310.462
 20
523.026
 30
0
 11
310.462
 21
463.026
 31
0
  0
TEXT
  5
239
330
118
100
AcDbEntity
  8
Dimension027
100
AcDbText
 10
305.462
 20
491.094
 30
0
 40
3.5
  1
60.000 mm
  7
STANDARD
 72
1
 11
310.462
 21
491.094
 31
0
100
AcDbText
  0
SOLID
  5
23A
330
118
100
AcDbEntity
  8
0
 62
     0
100
AcDbTrace
 10
310.046
 20
518.026
 30
0
 11
310.879
 21
518.026
 31
0
 12
310.462
 22
523.026
 32
0
 13
310.462
 23
523.026
 33
0
  0
SOLID
  5
23B
330
118
100
AcDbEntity
  8
0
 62
     0
100
AcDbTrace
 10
310.046
 20
468.026
 30
0
 11
310.879
 21
468.026
 31
0
 12
310.462
 22
463.026
 32
0
 13
310.462
 23
463.026
 33
0
  0
ENDBLK
  5
23C
330
118
100
AcDbEntity
  8
Dimension027
100
AcDbBlockEnd
  0
BLOCK
  5
23D
330
119
100
AcDbEntity
  8
Dimension028
100
AcDbBlockBegin
  2
*Dimension028
 70
   1
 10
0
 20
0
 30
0
  3
*Dimension028
  1
 
  0
LINE
  5
23E
330
119
100
AcDbEntity
  8
Dimension028
100
AcDbLine
 10
285.012
 20
444.365
 30
0
 11
285.012
 21
358.026
 31
0
  0
TEXT
  5
23F
330
119
100
AcDbEntity
  8
Dimension028
100
AcDbText
 10
327.179
 20
440.75
 30
0
 40
3.5
  1
⌀20.000 mm
  7
STANDARD
 72
1
 11
327.179
 21
440.75
 31
0
100
AcDbText
  0
SOLID
  5
240
330
119
100
AcDbEntity
  8
0
 62
     0
100
AcDbTrace
 10
285.429
 20
439.365
 30
0
 11
284.595
 21
439.365
 31
0
 12
285.012
 22
444.365
 32
0
 13
285.012
 23
444.365
 33
0
  0
SOLID
  5
241
330
119
100
AcDbEntity
  8
0
 62
     0
100
AcDbTrace
 10
285.429
 20
363.026
 30
0
 11
284.595
 21
363.026
 31
0
 12
285.012
 22
358.026
 32
0
 13
285.012
 23
358.026
 33
0
  0
ENDBLK
  5
242
330
119
100
AcDbEntity
  8
Dimension028
100
AcDbBlockEnd
  0
BLOCK
  5
243
330
11A
100
AcDbEntity
  8
Dimension029
100
AcDbBlockBegin
  2
*Dimension029
 70
   1
 10
0
 20
0
 30
0
  3
*Dimension029
  1
 
  0
LINE
  5
244
330
11A
100
AcDbEntity
  8
Dimension029
100
AcDbLine
 10
450.012
 20
193.026
 30
0
 11
468.853
 21
193.026
 31
0
  0
LINE
  5
245
330
11A
100
AcDbEntity
  8
Dimension029
100
AcDbLine
 10
450.012
 20
523.026
 30
0
 11
468.853
 21
523.026
 31
0
  0
LINE
  5
246
330
11A
100
AcDbEntity
  8
Dimension029
100
AcDbLine
 10
468.853
 20
523.026
 30
0
 11
468.853
 21
193.026
 31
0
  0
TEXT
  5
247
330
11A
100
AcDbEntity
  8
Dimension029
100
AcDbText
 10
463.853
 20
362.532
 30
0
 40
3.5
  1
330.000 mm
  7
STANDARD
 72
1
 11
468.853
 21
362.532
 31
0
100
AcDbText
  0
SOLID
  5
248
330
11A
100
AcDbEntity
  8
0
 62
     0
100
AcDbTrace
 10
468.436
 20
518.026
 30
0
 11
469.27
 21
518.026
 31
0
 12
468.853
 22
523.026
 32
0
 13
468.853
 23
523.026
 33
0
  0
SOLID
  5
249
330
11A
100
AcDbEntity
  8
0
 62
     0
100
AcDbTrace
 10
468.436
 20
198.026
 30
0
 11
469.27
 21
198.026
 31
0
 12
468.853
 22
193.026
 32
0
 13
468.853
 23
193.026
 33
0
  0
ENDBLK
  5
24A
330
11A
100
AcDbEntity
  8
Dimension029
100
AcDbBlockEnd
  0
BLOCK
  5
24B
330
11B
100
AcDbEntity
  8
Dimension030
100
AcDbBlockBegin
  2
*Dimension030
 70
   1
 10
0
 20
0
 30
0
  3
*Dimension030
  1
 
  0
LINE
  5
24C
330
11B
100
AcDbEntity
  8
Dimension030
100
AcDbLine
 10
631.262
 20
523.026
 30
0
 11
640.425
 21
523.026
 31
0
  0
LINE
  5
24D
330
11B
100
AcDbEntity
  8
Dimension030
100
AcDbLine
 10
631.262
 20
193.026
 30
0
 11
640.425
 21
193.026
 31
0
  0
LINE
  5
24E
330
11B
100
AcDbEntity
  8
Dimension030
100
AcDbLine
 10
640.425
 20
193.026
 30
0
 11
640.425
 21
523.026
 31
0
  0
TEXT
  5
24F
330
11B
100
AcDbEntity
  8
Dimension030
100
AcDbText
 10
645.425
 20
361.888
 30
0
 40
3.5
  1
330.000 mm
  7
STANDARD
 72
1
 11
640.425
 21
361.888
 31
0
100
AcDbText
  0
SOLID
  5
250
330
11B
100
AcDbEntity
  8
0
 62
     0
100
AcDbTrace
 10
640.008
 20
198.026
 30
0
 11
640.842
 21
198.026
 31
0
 12
640.425
 22
193.026
 32
0
 13
640.425
 23
193.026
 33
0
  0
SOLID
  5
251
330
11B
100
AcDbEntity
  8
0
 62
     0
100
AcDbTrace
 10
640.008
 20
518.026
 30
0
 11
640.842
 21
518.026
 31
0
 12
640.425
 22
523.026
 32
0
 13
640.425
 23
523.026
 33
0
  0
ENDBLK
  5
252
330
11B
100
AcDbEntity
  8
Dimension030
100
AcDbBlockEnd
  0
BLOCK
  5
253
330
11C
100
AcDbEntity
  8
Dimension031
100
AcDbBlockBegin
  2
*Dimension031
 70
   1
 10
0
 20
0
 30
0
  3
*Dimension031
  1
 
  0
LINE
  5
254
330
11C
100
AcDbEntity
  8
Dimension031
100
AcDbLine
 10
631.262
 20
523.026
 30
0
 11
632.03
 21
539.603
 31
0
  0
LINE
  5
255
330
11C
100
AcDbEntity
  8
Dimension031
100
AcDbLine
 10
628.762
 20
523.026
 30
0
 11
629.53
 21
539.603
 31
0
  0
LINE
  5
256
330
11C
100
AcDbEntity
  8
Dimension031
100
AcDbLine
 10
629.53
 20
539.603
 30
0
 11
632.03
 21
539.603
 31
0
  0
TEXT
  5
257
330
11C
100
AcDbEntity
  8
Dimension031
100
AcDbText
 10
632.03
 20
544.603
 30
0
 40
3.5
  1
2.500 mm
  7
STANDARD
 72
1
 11
632.03
 21
539.603
 31
0
100
AcDbText
  0
SOLID
  5
258
330
11C
100
AcDbEntity
  8
0
 62
     0
100
AcDbTrace
 10
634.511
 20
539.186
 30
0
 11
634.549
 21
540.019
 31
0
 12
629.53
 22
539.603
 32
0
 13
629.53
 23
539.603
 33
0
  0
SOLID
  5
259
330
11C
100
AcDbEntity
  8
0
 62
     0
100
AcDbTrace
 10
627.011
 20
539.186
 30
0
 11
627.049
 21
540.019
 31
0
 12
632.03
 22
539.603
 32
0
 13
632.03
 23
539.603
 33
0
  0
ENDBLK
  5
25A
330
11C
100
AcDbEntity
  8
Dimension031
100
AcDbBlockEnd
  0
BLOCK
  5
25B
330
11D
100
AcDbEntity
  8
Dimension038
100
AcDbBlockBegin
  2
*Dimension038
 70
   1
 10
0
 20
0
 30
0
  3
*Dimension038
  1
 
  0
LINE
  5
25C
330
11D
100
AcDbEntity
  8
Dimension038
100
AcDbLine
 10
120.012
 20
704.276
 30
0
 11
120.012
 21
732.076
 31
0
  0
LINE
  5
25D
330
11D
100
AcDbEntity
  8
Dimension038
100
AcDbLine
 10
450.012
 20
704.276
 30
0
 11
450.012
 21
732.076
 31
0
  0
LINE
  5
25E
330
11D
100
AcDbEntity
  8
Dimension038
100
AcDbLine
 10
450.012
 20
732.076
 30
0
 11
120.012
 21
732.076
 31
0
  0
TEXT
  5
25F
330
11D
100
AcDbEntity
  8
Dimension038
100
AcDbText
 10
281.257
 20
727.076
 30
0
 40
3.5
  1
330.000 mm
  7
STANDARD
 72
1
 11
281.257
 21
732.076
 31
0
100
AcDbText
  0
SOLID
  5
260
330
11D
100
AcDbEntity
  8
0
 62
     0
100
AcDbTrace
 10
445.012
 20
731.659
 30
0
 11
445.012
 21
732.493
 31
0
 12
450.012
 22
732.076
 32
0
 13
450.012
 23
732.076
 33
0
  0
SOLID
  5
261
330
11D
100
AcDbEntity
  8
0
 62
     0
100
AcDbTrace
 10
125.012
 20
731.659
 30
0
 11
125.012
 21
732.493
 31
0
 12
120.012
 22
732.076
 32
0
 13
120.012
 23
732.076
 33
0
  0
ENDBLK
  5
262
330
11D
100
AcDbEntity
  8
Dimension038
100
AcDbBlockEnd
  0
BLOCK
  5
263
330
11E
100
AcDbEntity
  8
Dimension039
100
AcDbBlockBegin
  2
*Dimension039
 70
   1
 10
0
 20
0
 30
0
  3
*Dimension039
  1
 
  0
LINE
  5
264
330
11E
100
AcDbEntity
  8
Dimension039
100
AcDbLine
 10
450.012
 20
701.776
 30
0
 11
465.473
 21
674.056
 31
0
  0
LINE
  5
265
330
11E
100
AcDbEntity
  8
Dimension039
100
AcDbLine
 10
450.012
 20
704.276
 30
0
 11
465.473
 21
676.556
 31
0
  0
LINE
  5
266
330
11E
100
AcDbEntity
  8
Dimension039
100
AcDbLine
 10
465.473
 20
676.556
 30
0
 11
465.473
 21
674.056
 31
0
  0
TEXT
  5
267
330
11E
100
AcDbEntity
  8
Dimension039
100
AcDbText
 10
460.473
 20
674.056
 30
0
 40
3.5
  1
2.500 mm
  7
STANDARD
 72
1
 11
465.473
 21
674.056
 31
0
100
AcDbText
  0
SOLID
  5
268
330
11E
100
AcDbEntity
  8
0
 62
     0
100
AcDbTrace
 10
465.27
 20
671.92
 30
0
 11
465.676
 21
671.192
 31
0
 12
465.473
 22
676.556
 32
0
 13
465.473
 23
676.556
 33
0
  0
SOLID
  5
269
330
11E
100
AcDbEntity
  8
0
 62
     0
100
AcDbTrace
 10
465.27
 20
679.42
 30
0
 11
465.676
 21
678.692
 31
0
 12
465.473
 22
674.056
 32
0
 13
465.473
 23
674.056
 33
0
  0
ENDBLK
  5
26A
330
11E
100
AcDbEntity
  8
Dimension039
100
AcDbBlockEnd
  0
ENDSEC
  0
SECTION
  2
ENTITIES
  0
LINE
  5
301
330
112
100
AcDbEntity
  8
ProjItem012
100
AcDbLine
 10
290.012
 20
523.026
 30
0
 11
450.012
 21
523.026
 31
0
  0
LINE
  5
302
330
112
100
AcDbEntity
  8
ProjItem012
100
AcDbLine
 10
450.012
 20
523.026
 30
0
 11
450.012
 21
193.026
 31
0
  0
LINE
  5
303
330
112
100
AcDbEntity
  8
ProjItem012
100
AcDbLine
 10
450.012
 20
193.026
 30
0
 11
120.012
 21
193.026
 31
0
  0
LINE
  5
304
330
112
100
AcDbEntity
  8
ProjItem012
100
AcDbLine
 10
120.012
 20
193.026
 30
0
 11
120.012
 21
523.026
 31
0
  0
LINE
  5
305
330
112
100
AcDbEntity
  8
ProjItem012
100
AcDbLine
 10
120.012
 20
523.026
 30
0
 11
280.012
 21
523.026
 31
0
  0
LINE
  5
306
330
112
100
AcDbEntity
  8
ProjItem012
100
AcDbLine
 10
280.012
 20
523.026
 30
0
 11
280.012
 21
463.026
 31
0
  0
ARC
  5
307
330
112
100
AcDbEntity
  8
ProjItem012
100
AcDbCircle
 10
285.012
 20
454.365
 30
0
 40
10
100
AcDbArc
 50
120
 51
60
  0
LINE
  5
308
330
112
100
AcDbEntity
  8
ProjItem012
100
AcDbLine
 10
290.012
 20
523.026
 30
0
 11
290.012
 21
463.026
 31
0
  0
LINE
  5
309
330
112
100
AcDbEntity
  8
ProjItem013
100
AcDbLine
 10
450.012
 20
701.776
 30
0
 11
450.012
 21
704.276
 31
0
  0
LINE
  5
30A
330
112
100
AcDbEntity
  8
ProjItem013
100
AcDbLine
 10
120.012
 20
701.776
 30
0
 11
120.012
 21
704.276
 31
0
  0
LINE
  5
30B
330
112
100
AcDbEntity
  8
ProjItem013
100
AcDbLine
 10
450.012
 20
701.776
 30
0
 11
120.012
 21
701.776
 31
0
  0
LINE
  5
30C
330
112
100
AcDbEntity
  8
ProjItem013
100
AcDbLine
 10
450.012
 20
704.276
 30
0
 11
120.012
 21
704.276
 31
0
  0
LINE
  5
30D
330
112
100
AcDbEntity
  8
ProjItem014
100
AcDbLine
 10
628.762
 20
193.026
 30
0
 11
631.262
 21
193.026
 31
0
  0
LINE
  5
30E
330
112
100
AcDbEntity
  8
ProjItem014
100
AcDbLine
 10
628.762
 20
523.026
 30
0
 11
631.262
 21
523.026
 31
0
  0
LINE
  5
30F
330
112
100
AcDbEntity
  8
ProjItem014
100
AcDbLine
 10
628.762
 20
193.026
 30
0
 11
628.762
 21
523.026
 31
0
  0
LINE
  5
310
330
112
100
AcDbEntity
  8
ProjItem014
100
AcDbLine
 10
631.262
 20
193.026
 30
0
 11
631.262
 21
523.026
 31
0
  0
DIMENSION
  5
311
330
112
100
AcDbEntity
  8
Dimension
100
AcDbDimension
  2
*Dimension
 10
205.806
 20
530.901
 30
0
 11
205.806
 21
535.901
 31
0
 70
1
  1
160.000 mm
  3
STANDARD
100
AcDbAlignedDimension
 13
120.012
 23
523.026
 33
0
 14
280.012
 24
523.026
 34
0
  0
DIMENSION
  5
312
330
112
100
AcDbEntity
  8
Dimension024
100
AcDbDimension
  2
*Dimension024
 10
370.012
 20
532.189
 30
0
 11
370.012
 21
537.189
 31
0
 70
1
  1
160.000 mm
  3
STANDARD
100
AcDbAlignedDimension
 13
290.012
 23
523.026
 33
0
 14
450.012
 24
523.026
 34
0
  0
DIMENSION
  5
313
330
112
100
AcDbEntity
  8
Dimension025
100
AcDbDimension
  2
*Dimension025
 10
292.737
 20
578.54
 30
0
 11
292.737
 21
583.54
 31
0
 70
1
  1
330.000 mm
  3
STANDARD
100
AcDbAlignedDimension
 13
120.012
 23
523.026
 33
0
 14
450.012
 24
523.026
 34
0
  0
DIMENSION
  5
314
330
112
100
AcDbEntity
  8
Dimension026
100
AcDbDimension
  2
*Dimension026
 10
286.3
 20
557.639
 30
0
 11
286.3
 21
552.639
 31
0
 70
1
  1
10.000 mm
  3
STANDARD
100
AcDbAlignedDimension
 13
290.012
 23
523.026
 33
0
 14
280.012
 24
523.026
 34
0
  0
DIMENSION
  5
315
330
112
100
AcDbEntity
  8
Dimension027
100
AcDbDimension
  2
*Dimension027
 10
310.462
 20
491.094
 30
0
 11
305.462
 21
491.094
 31
0
 70
1
  1
60.000 mm
  3
STANDARD
100
AcDbAlignedDimension
 13
290.012
 23
523.026
 33
0
 14
290.012
 24
463.026
 34
0
  0
DIMENSION
  5
316
330
112
100
AcDbEntity
  8
Dimension028
100
AcDbDimension
  2
*Dimension028
 10
285.012
 20
444.365
 30
0
 11
327.179
 21
440.75
 31
0
 70
3
  1
⌀20.000 mm
  3
STANDARD
100
AcDbDiametricDimension
 15
285.012
 25
358.026
 35
0
 40
0
  0
DIMENSION
  5
317
330
112
100
AcDbEntity
  8
Dimension029
100
AcDbDimension
  2
*Dimension029
 10
468.853
 20
362.532
 30
0
 11
463.853
 21
362.532
 31
0
 70
1
  1
330.000 mm
  3
STANDARD
100
AcDbAlignedDimension
 13
450.012
 23
523.026
 33
0
 14
450.012
 24
193.026
 34
0
  0
DIMENSION
  5
318
330
112
100
AcDbEntity
  8
Dimension030
100
AcDbDimension
  2
*Dimension030
 10
640.425
 20
361.888
 30
0
 11
645.425
 21
361.888
 31
0
 70
1
  1
330.000 mm
  3
STANDARD
100
AcDbAlignedDimension
 13
631.262
 23
193.026
 33
0
 14
631.262
 24
523.026
 34
0
  0
DIMENSION
  5
319
330
112
100
AcDbEntity
  8
Dimension031
100
AcDbDimension
  2
*Dimension031
 10
632.03
 20
539.603
 30
0
 11
632.03
 21
544.603
 31
0
 70
1
  1
2.500 mm
  3
STANDARD
100
AcDbAlignedDimension
 13
628.762
 23
523.026
 33
0
 14
631.262
 24
523.026
 34
0
  0
LINE
  5
31A
330
112
100
AcDbEntity
  8
View018
100
AcDbLine
 10
1098.99
 20
685.425
 30
0
 11
1098.99
 21
686.367
 31
0
  0
LINE
  5
31B
330
112
100
AcDbEntity
  8
View018
100
AcDbLine
 10
1057.27
 20
640.568
 30
0
 11
1057.27
 21
641.51
 31
0
  0
LINE
  5
31C
330
112
100
AcDbEntity
  8
View018
100
AcDbLine
 10
1098.99
 20
685.425
 30
0
 11
1057.27
 21
640.568
 31
0
  0
LINE
  5
31D
330
112
100
AcDbEntity
  8
View018
100
AcDbLine
 10
1098.99
 20
686.367
 30
0
 11
1057.27
 21
641.51
 31
0
  0
LINE
  5
31E
330
112
100
AcDbEntity
  8
View018
100
AcDbLine
 10
916.481
 20
697.114
 30
0
 11
916.481
 21
698.056
 31
0
  0
LINE
  5
31F
330
112
100
AcDbEntity
  8
View018
100
AcDbLine
 10
1057.27
 20
640.568
 30
0
 11
916.481
 21
697.114
 31
0
  0
LINE
  5
320
330
112
100
AcDbEntity
  8
View018
100
AcDbLine
 10
1057.27
 20
641.51
 30
0
 11
916.481
 21
698.056
 31
0
  0
LINE
  5
321
330
112
100
AcDbEntity
  8
View018
100
AcDbLine
 10
916.481
 20
698.056
 30
0
 11
1002.53
 21
790.574
 31
0
  0
LINE
  5
322
330
112
100
AcDbEntity
  8
View018
100
AcDbLine
 10
1143.31
 20
733.085
 30
0
 11
1143.31
 21
734.027
 31
0
  0
LINE
  5
323
330
112
100
AcDbEntity
  8
View018
100
AcDbLine
 10
1002.53
 20
790.574
 30
0
 11
1143.31
 21
734.027
 31
0
  0
LINE
  5
324
330
112
100
AcDbEntity
  8
View018
100
AcDbLine
 10
1101.59
 20
688.228
 30
0
 11
1101.59
 21
689.171
 31
0
  0
LINE
  5
325
330
112
100
AcDbEntity
  8
View018
100
AcDbLine
 10
1143.31
 20
733.085
 30
0
 11
1101.59
 21
688.228
 31
0
  0
LINE
  5
326
330
112
100
AcDbEntity
  8
View018
100
AcDbLine
 10
1143.31
 20
734.027
 30
0
 11
1101.59
 21
689.171
 31
0
  0
LINE
  5
327
330
112
100
AcDbEntity
  8
View018
100
AcDbLine
 10
1076
 20
698.509
 30
0
 11
1076
 21
699.452
 31
0
  0
LINE
  5
328
330
112
100
AcDbEntity
  8
View018
100
AcDbLine
 10
1101.59
 20
688.228
 30
0
 11
1076
 21
698.509
 31
0
  0
LINE
  5
329
330
112
100
AcDbEntity
  8
View018
100
AcDbLine
 10
1101.59
 20
689.171
 30
0
 11
1076
 21
699.452
 31
0
  0
ELLIPSE
  5
32A
330
112
100
AcDbEntity
  8
View018
100
AcDbEllipse
 10
1071
 20
698.592
 30
0
 11
5
 21
-5.24495e-15
 31
0
 40
0.657149
 41
0.0250135
 42
2.99772
  0
ELLIPSE
  5
32B
330
112
100
AcDbEntity
  8
View018
100
AcDbEllipse
 10
1071
 20
699.534
 30
0
 11
5
 21
-5.24495e-15
 31
0
 40
0.657149
 41
6.25817
 42
0
  0
ELLIPSE
  5
32C
330
112
100
AcDbEntity
  8
View018
100
AcDbEllipse
 10
1071
 20
699.534
 30
0
 11
5
 21
-5.24495e-15
 31
0
 40
0.657149
 41
4.44089e-16
 42
3.14159
  0
ELLIPSE
  5
32D
330
112
100
AcDbEntity
  8
View018
100
AcDbEllipse
 10
1071
 20
699.534
 30
0
 11
5
 21
-5.24495e-15
 31
0
 40
0.657149
 41
3.14159
 42
5.21097
  0
LINE
  5
32E
330
112
100
AcDbEntity
  8
View018
100
AcDbLine
 10
1098.99
 20
686.367
 30
0
 11
1073.39
 21
696.648
 31
0
  0
DIMENSION
  5
32F
330
112
100
AcDbEntity
  8
Dimension038
100
AcDbDimension
  2
*Dimension038
 10
281.257
 20
732.076
 30
0
 11
281.257
 21
727.076
 31
0
 70
1
  1
330.000 mm
  3
STANDARD
100
AcDbAlignedDimension
 13
450.012
 23
704.276
 33
0
 14
120.012
 24
704.276
 34
0
  0
DIMENSION
  5
330
330
112
100
AcDbEntity
  8
Dimension039
100
AcDbDimension
  2
*Dimension039
 10
465.473
 20
674.056
 30
0
 11
460.473
 21
674.056
 31
0
 70
1
  1
2.500 mm
  3
STANDARD
100
AcDbAlignedDimension
 13
450.012
 23
704.276
 33
0
 14
450.012
 24
701.776
 34
0
  0
ENDSEC
  0
SECTION
  2
OBJECTS
  0
DICTIONARY
  5
500
330
0
100
AcDbDictionary
  3
ACAD_GROUP
350
501
  0
DICTIONARY
  5
501
330
500
100
AcDbDictionary
  0
ENDSEC
  0
EOF